M48
; DRILL file {KiCad 7.0.2} date Sat May 27 17:02:02 2023
; FORMAT={-:-/ absolute / inch / decimal}
; #@! TF.CreationDate,2023-05-27T17:02:02+02:00
; #@! TF.GenerationSoftware,Kicad,Pcbnew,7.0.2
; #@! TF.FileFunction,Plated,1,2,PTH
FMAT,2
INCH
; #@! TA.AperFunction,Plated,PTH,ViaDrill
T1C0.0157
; #@! TA.AperFunction,Plated,PTH,ComponentDrill
T2C0.0236
; #@! TA.AperFunction,Plated,PTH,ComponentDrill
T3C0.0276
; #@! TA.AperFunction,Plated,PTH,ComponentDrill
T4C0.0295
; #@! TA.AperFunction,Plated,PTH,ComponentDrill
T5C0.0300
; #@! TA.AperFunction,Plated,PTH,ViaDrill
T6C0.0315
; #@! TA.AperFunction,Plated,PTH,ComponentDrill
T7C0.0512
; #@! TA.AperFunction,Plated,PTH,ComponentDrill
T8C0.1260
%
G90
G05
T1
X5.2Y-4.5
X5.45Y-3.8
X5.45Y-4.0
X5.55Y-3.65
X5.55Y-3.75
X5.75Y-3.85
X6.05Y-4.2
X6.4Y-3.5
X6.7Y-3.6
X6.863Y-3.5
X6.863Y-3.6
X7.05Y-3.55
T2
X5.0909Y-4.2
X5.15Y-4.2
X5.3409Y-4.2
X5.4Y-4.2
X6.4713Y-2.9992
X6.4713Y-3.0976
X6.55Y-2.9992
X6.55Y-3.0976
X6.5909Y-4.2
X6.6287Y-2.9992
X6.6287Y-3.0976
X6.65Y-4.2
X6.8409Y-4.2
X6.9Y-4.2
T4
X5.2Y-4.0142
X5.25Y-4.0142
X5.3Y-4.0142
X6.7Y-4.0142
X6.75Y-4.0142
X6.8Y-4.0142
T5
X5.525Y-4.8908
X5.525Y-4.9908
X5.525Y-5.0908
X5.525Y-5.1908
X5.625Y-4.8908
X5.625Y-4.9908
X5.625Y-5.0908
X5.625Y-5.1908
X5.725Y-4.8908
X5.725Y-4.9908
X5.725Y-5.0908
X5.725Y-5.1908
X6.275Y-4.8908
X6.275Y-4.9908
X6.275Y-5.0908
X6.275Y-5.1908
X6.375Y-4.8908
X6.375Y-4.9908
X6.375Y-5.0908
X6.375Y-5.1908
X6.475Y-4.8908
X6.475Y-4.9908
X6.475Y-5.0908
X6.475Y-5.1908
T6
X6.55Y-3.3
T7
X5.9478Y-3.2323
T8
X4.937Y-2.937
X4.937Y-5.063
X7.063Y-2.937
X7.063Y-5.063
T2
G00X5.9478Y-3.0768
M15
G01X5.9478Y-3.1319
M16
G05
G00X6.1526Y-3.0768
M15
G01X6.1526Y-3.1319
M16
G05
G00X6.2724Y-3.0681
M15
G01X6.2724Y-3.0287
M16
G05
G00X6.8276Y-3.0681
M15
G01X6.8276Y-3.0287
M16
G05
T3
G00X5.8053Y-2.7933
M15
G01X5.8053Y-2.8839
M16
G05
G00X6.1931Y-2.7933
M15
G01X6.1931Y-2.8839
M16
G05
T0
M30
