%TF.GenerationSoftware,KiCad,Pcbnew,7.0.2*%
%TF.CreationDate,2023-05-27T17:02:01+02:00*%
%TF.ProjectId,benchpsu_barreljack_adapter,62656e63-6870-4737-955f-62617272656c,rev?*%
%TF.SameCoordinates,Original*%
%TF.FileFunction,Copper,L1,Top*%
%TF.FilePolarity,Positive*%
%FSLAX46Y46*%
G04 Gerber Fmt 4.6, Leading zero omitted, Abs format (unit mm)*
G04 Created by KiCad (PCBNEW 7.0.2) date 2023-05-27 17:02:01*
%MOMM*%
%LPD*%
G01*
G04 APERTURE LIST*
G04 Aperture macros list*
%AMRoundRect*
0 Rectangle with rounded corners*
0 $1 Rounding radius*
0 $2 $3 $4 $5 $6 $7 $8 $9 X,Y pos of 4 corners*
0 Add a 4 corners polygon primitive as box body*
4,1,4,$2,$3,$4,$5,$6,$7,$8,$9,$2,$3,0*
0 Add four circle primitives for the rounded corners*
1,1,$1+$1,$2,$3*
1,1,$1+$1,$4,$5*
1,1,$1+$1,$6,$7*
1,1,$1+$1,$8,$9*
0 Add four rect primitives between the rounded corners*
20,1,$1+$1,$2,$3,$4,$5,0*
20,1,$1+$1,$4,$5,$6,$7,0*
20,1,$1+$1,$6,$7,$8,$9,0*
20,1,$1+$1,$8,$9,$2,$3,0*%
G04 Aperture macros list end*
%TA.AperFunction,ComponentPad*%
%ADD10C,1.524000*%
%TD*%
%TA.AperFunction,SMDPad,CuDef*%
%ADD11RoundRect,2.250000X2.250000X2.750000X-2.250000X2.750000X-2.250000X-2.750000X2.250000X-2.750000X0*%
%TD*%
%TA.AperFunction,SMDPad,CuDef*%
%ADD12RoundRect,0.250000X0.625000X-0.400000X0.625000X0.400000X-0.625000X0.400000X-0.625000X-0.400000X0*%
%TD*%
%TA.AperFunction,ComponentPad*%
%ADD13C,3.600000*%
%TD*%
%TA.AperFunction,ConnectorPad*%
%ADD14C,5.600000*%
%TD*%
%TA.AperFunction,ComponentPad*%
%ADD15R,1.050000X1.500000*%
%TD*%
%TA.AperFunction,ComponentPad*%
%ADD16O,1.050000X1.500000*%
%TD*%
%TA.AperFunction,SMDPad,CuDef*%
%ADD17RoundRect,0.250001X-1.074999X0.462499X-1.074999X-0.462499X1.074999X-0.462499X1.074999X0.462499X0*%
%TD*%
%TA.AperFunction,ComponentPad*%
%ADD18R,1.200000X1.200000*%
%TD*%
%TA.AperFunction,ComponentPad*%
%ADD19C,1.200000*%
%TD*%
%TA.AperFunction,ComponentPad*%
%ADD20C,1.000000*%
%TD*%
%TA.AperFunction,ComponentPad*%
%ADD21O,1.000000X2.500000*%
%TD*%
%TA.AperFunction,ComponentPad*%
%ADD22O,1.200000X2.600000*%
%TD*%
%TA.AperFunction,ComponentPad*%
%ADD23C,1.900000*%
%TD*%
%TA.AperFunction,ComponentPad*%
%ADD24O,1.300000X3.600000*%
%TD*%
%TA.AperFunction,ViaPad*%
%ADD25C,1.200000*%
%TD*%
%TA.AperFunction,ViaPad*%
%ADD26C,0.800000*%
%TD*%
%TA.AperFunction,Conductor*%
%ADD27C,0.200000*%
%TD*%
%TA.AperFunction,Conductor*%
%ADD28C,2.000000*%
%TD*%
%TA.AperFunction,Conductor*%
%ADD29C,1.000000*%
%TD*%
%TA.AperFunction,Conductor*%
%ADD30C,0.250000*%
%TD*%
G04 APERTURE END LIST*
D10*
%TO.P,J1,1,Pin_1*%
%TO.N,VCC*%
X145415000Y-131846000D03*
X145415000Y-129306000D03*
X145415000Y-126766000D03*
X145415000Y-124226000D03*
X142875000Y-131846000D03*
X142875000Y-129306000D03*
D11*
X142875000Y-128016000D03*
D10*
X142875000Y-126766000D03*
X142875000Y-124226000D03*
X140335000Y-131846000D03*
X140335000Y-129306000D03*
X140335000Y-126766000D03*
X140335000Y-124226000D03*
%TD*%
%TO.P,J2,1,Pin_1*%
%TO.N,GND*%
X164465000Y-131846000D03*
X164465000Y-129306000D03*
X164465000Y-126766000D03*
X164465000Y-124226000D03*
X161925000Y-131846000D03*
X161925000Y-129306000D03*
D11*
X161925000Y-128016000D03*
D10*
X161925000Y-126766000D03*
X161925000Y-124226000D03*
X159385000Y-131846000D03*
X159385000Y-129306000D03*
X159385000Y-126766000D03*
X159385000Y-124226000D03*
%TD*%
D12*
%TO.P,R3,1*%
%TO.N,Net-(D3-K)*%
X134620000Y-114300000D03*
%TO.P,R3,2*%
%TO.N,GND*%
X134620000Y-111200000D03*
%TD*%
D13*
%TO.P,H1,1,1*%
%TO.N,GND*%
X179400000Y-128600000D03*
D14*
X179400000Y-128600000D03*
%TD*%
D15*
%TO.P,U2,1,GND*%
%TO.N,GND*%
X170180000Y-101960000D03*
D16*
%TO.P,U2,2,VIN*%
%TO.N,SLEEVE*%
X171450000Y-101960000D03*
%TO.P,U2,3,VOUT*%
%TO.N,Net-(D3-A)*%
X172720000Y-101960000D03*
%TD*%
D17*
%TO.P,D1,1,K*%
%TO.N,Net-(D1-K)*%
X166370000Y-90587500D03*
%TO.P,D1,2,A*%
%TO.N,Net-(D1-A)*%
X166370000Y-93562500D03*
%TD*%
D18*
%TO.P,C2,1*%
%TO.N,SLEEVE*%
X168910000Y-106680000D03*
D19*
%TO.P,C2,2*%
%TO.N,GND*%
X167410000Y-106680000D03*
%TD*%
D13*
%TO.P,H2,1,1*%
%TO.N,GND*%
X179400000Y-74600000D03*
D14*
X179400000Y-74600000D03*
%TD*%
D12*
%TO.P,R4,1*%
%TO.N,Net-(D4-K)*%
X132080000Y-114300000D03*
%TO.P,R4,2*%
%TO.N,GND*%
X132080000Y-111200000D03*
%TD*%
D15*
%TO.P,U1,1,GND*%
%TO.N,GND*%
X132080000Y-101960000D03*
D16*
%TO.P,U1,2,VIN*%
%TO.N,TIP*%
X133350000Y-101960000D03*
%TO.P,U1,3,VOUT*%
%TO.N,Net-(D1-A)*%
X134620000Y-101960000D03*
%TD*%
D17*
%TO.P,D3,1,K*%
%TO.N,Net-(D3-K)*%
X138430000Y-90587500D03*
%TO.P,D3,2,A*%
%TO.N,Net-(D3-A)*%
X138430000Y-93562500D03*
%TD*%
D12*
%TO.P,R2,1*%
%TO.N,Net-(D2-K)*%
X170180000Y-114580000D03*
%TO.P,R2,2*%
%TO.N,GND*%
X170180000Y-111480000D03*
%TD*%
D20*
%TO.P,SW1,1,A*%
%TO.N,VCC*%
X168370000Y-78680000D03*
%TO.P,SW1,2,B*%
%TO.N,TIP*%
X166370000Y-78680000D03*
%TO.P,SW1,3,C*%
%TO.N,GND*%
X164370000Y-78680000D03*
%TO.P,SW1,4,A*%
X168370000Y-76180000D03*
%TO.P,SW1,5,B*%
%TO.N,SLEEVE*%
X166370000Y-76180000D03*
%TO.P,SW1,6,C*%
%TO.N,VCC*%
X164370000Y-76180000D03*
D21*
%TO.P,SW1,MP,MP*%
%TO.N,GND*%
X173420000Y-77430000D03*
X159320000Y-77430000D03*
%TD*%
D13*
%TO.P,H3,1,1*%
%TO.N,GND*%
X125400000Y-74600000D03*
D14*
X125400000Y-74600000D03*
%TD*%
D18*
%TO.P,C1,1*%
%TO.N,TIP*%
X130810000Y-106680000D03*
D19*
%TO.P,C1,2*%
%TO.N,GND*%
X129310000Y-106680000D03*
%TD*%
D18*
%TO.P,C3,1*%
%TO.N,Net-(D1-A)*%
X137160000Y-106680000D03*
D19*
%TO.P,C3,2*%
%TO.N,GND*%
X135660000Y-106680000D03*
%TD*%
D13*
%TO.P,H4,1,1*%
%TO.N,GND*%
X125400000Y-128600000D03*
D14*
X125400000Y-128600000D03*
%TD*%
D12*
%TO.P,R1,1*%
%TO.N,Net-(D1-K)*%
X172720000Y-114580000D03*
%TO.P,R1,2*%
%TO.N,GND*%
X172720000Y-111480000D03*
%TD*%
D22*
%TO.P,J3,2*%
%TO.N,SLEEVE*%
X156275000Y-78850000D03*
%TO.P,J3,3*%
%TO.N,unconnected-(J3-Pad3)*%
X151075000Y-78850000D03*
D23*
%TO.P,J3,4*%
%TO.N,TIP*%
X151075000Y-82100000D03*
D24*
%TO.P,J3,MP*%
%TO.N,GND*%
X147455000Y-72100000D03*
X157305000Y-72100000D03*
%TD*%
D18*
%TO.P,C4,1*%
%TO.N,Net-(D3-A)*%
X175260000Y-106680000D03*
D19*
%TO.P,C4,2*%
%TO.N,GND*%
X173760000Y-106680000D03*
%TD*%
D25*
%TO.N,SLEEVE*%
X166370000Y-83820000D03*
D26*
%TO.N,Net-(D1-A)*%
X146050000Y-97790000D03*
%TO.N,Net-(D3-A)*%
X179070000Y-90170000D03*
X162560000Y-88900000D03*
X174319500Y-88900000D03*
%TO.N,Net-(D1-K)*%
X170180000Y-91440000D03*
X174319500Y-91440000D03*
%TO.N,Net-(D2-K)*%
X153670000Y-106680000D03*
X140970000Y-92710000D03*
X140970000Y-95250000D03*
%TO.N,Net-(D3-K)*%
X138430000Y-101600000D03*
X138430000Y-96520000D03*
%TO.N,Net-(D4-K)*%
X132080000Y-114300000D03*
%TD*%
D27*
%TO.N,Net-(D1-K)*%
X177800000Y-109500000D02*
X172720000Y-114580000D01*
X177800000Y-94920500D02*
X177800000Y-109500000D01*
X174319500Y-91440000D02*
X177800000Y-94920500D01*
D28*
%TO.N,TIP*%
X166370000Y-79883000D02*
X164153000Y-82100000D01*
X166370000Y-78680000D02*
X166370000Y-79883000D01*
X164153000Y-82100000D02*
X151279000Y-82100000D01*
X128546000Y-108480000D02*
X130055585Y-108480000D01*
D29*
X133350000Y-104140000D02*
X133350000Y-101960000D01*
D28*
X130055585Y-108480000D02*
X131110000Y-107425585D01*
X151279000Y-82100000D02*
X140150000Y-82100000D01*
X127510000Y-102855000D02*
X127510000Y-107444000D01*
X131110000Y-107425585D02*
X131110000Y-106680000D01*
X127510000Y-107444000D02*
X128546000Y-108480000D01*
X133350000Y-104140000D02*
X131110000Y-106380000D01*
X134620000Y-87630000D02*
X134620000Y-95758000D01*
X140150000Y-82100000D02*
X134620000Y-87630000D01*
X134620000Y-95758000D02*
X127523000Y-102855000D01*
X127523000Y-102855000D02*
X127510000Y-102855000D01*
%TO.N,SLEEVE*%
X169210000Y-106634000D02*
X169210000Y-107425585D01*
X171450000Y-103886000D02*
X171450000Y-104394000D01*
X156275000Y-78850000D02*
X156275000Y-77108918D01*
X158903918Y-74480000D02*
X165074164Y-74480000D01*
X171450000Y-104394000D02*
X169210000Y-106634000D01*
X169210000Y-107425585D02*
X168155585Y-108480000D01*
X162560000Y-102870000D02*
X172720000Y-92710000D01*
X170180000Y-83820000D02*
X166370000Y-83820000D01*
X165074164Y-74480000D02*
X166370000Y-75775836D01*
X156275000Y-77108918D02*
X158903918Y-74480000D01*
X168155585Y-108480000D02*
X164360000Y-108480000D01*
X172720000Y-86360000D02*
X170180000Y-83820000D01*
X166370000Y-75775836D02*
X166370000Y-76180000D01*
D29*
X171450000Y-103886000D02*
X171450000Y-101960000D01*
D28*
X162560000Y-106680000D02*
X162560000Y-102870000D01*
X164360000Y-108480000D02*
X162560000Y-106680000D01*
X172720000Y-92710000D02*
X172720000Y-86360000D01*
D27*
%TO.N,Net-(D1-A)*%
X162142500Y-97790000D02*
X166370000Y-93562500D01*
X146050000Y-97790000D02*
X162142500Y-97790000D01*
%TO.N,Net-(D3-A)*%
X160020000Y-86360000D02*
X162560000Y-88900000D01*
X177800000Y-88900000D02*
X174319500Y-88900000D01*
X138430000Y-93562500D02*
X145632500Y-86360000D01*
X147320000Y-86360000D02*
X160020000Y-86360000D01*
X145632500Y-86360000D02*
X147320000Y-86360000D01*
X179070000Y-90170000D02*
X177800000Y-88900000D01*
%TO.N,Net-(D1-K)*%
X170180000Y-91440000D02*
X167222500Y-91440000D01*
X167222500Y-91440000D02*
X166370000Y-90587500D01*
D30*
%TO.N,Net-(D2-K)*%
X166142000Y-114580000D02*
X170180000Y-114580000D01*
X140970000Y-92710000D02*
X140970000Y-95250000D01*
X153670000Y-106680000D02*
X158242000Y-106680000D01*
X158242000Y-106680000D02*
X166142000Y-114580000D01*
D27*
%TO.N,Net-(D3-K)*%
X134620000Y-114300000D02*
X138430000Y-110490000D01*
X136805000Y-92212500D02*
X138430000Y-90587500D01*
X136805000Y-94895000D02*
X136805000Y-92212500D01*
X138430000Y-110490000D02*
X138430000Y-101600000D01*
X138430000Y-96520000D02*
X136805000Y-94895000D01*
%TD*%
%TA.AperFunction,Conductor*%
%TO.N,GND*%
G36*
X163304582Y-76008502D02*
G01*
X163351075Y-76062158D01*
X163361854Y-76126850D01*
X163356619Y-76179999D01*
X163376091Y-76377701D01*
X163433758Y-76567802D01*
X163527406Y-76743007D01*
X163653431Y-76896568D01*
X163806992Y-77022593D01*
X163806996Y-77022595D01*
X163982196Y-77116241D01*
X164077247Y-77145074D01*
X164172298Y-77173908D01*
X164369999Y-77193380D01*
X164369999Y-77193379D01*
X164370000Y-77193380D01*
X164567701Y-77173908D01*
X164757804Y-77116241D01*
X164933004Y-77022595D01*
X164944586Y-77013089D01*
X165009930Y-76985336D01*
X165079908Y-76997315D01*
X165131013Y-77043144D01*
X165160117Y-77089168D01*
X165321625Y-77271474D01*
X165358321Y-77301435D01*
X165393707Y-77330327D01*
X165433824Y-77388903D01*
X165435903Y-77459869D01*
X165401303Y-77518798D01*
X165237199Y-77676423D01*
X165090880Y-77871139D01*
X164977697Y-78086791D01*
X164900567Y-78317821D01*
X164861500Y-78558218D01*
X164861500Y-79205968D01*
X164841498Y-79274089D01*
X164824595Y-79295063D01*
X163565063Y-80554595D01*
X163502751Y-80588621D01*
X163475968Y-80591500D01*
X157107810Y-80591500D01*
X157039689Y-80571498D01*
X156993196Y-80517842D01*
X156983092Y-80447568D01*
X157012586Y-80382988D01*
X157016619Y-80378550D01*
X157059814Y-80333248D01*
X157150303Y-80238346D01*
X157264756Y-80060254D01*
X157299724Y-79972905D01*
X157329414Y-79928866D01*
X157407802Y-79853575D01*
X157554117Y-79658865D01*
X157667304Y-79443205D01*
X157744431Y-79212182D01*
X157763839Y-79092762D01*
X157783500Y-78971781D01*
X157783500Y-77785948D01*
X157803502Y-77717827D01*
X157820405Y-77696853D01*
X159491854Y-76025405D01*
X159554166Y-75991379D01*
X159580949Y-75988500D01*
X163236461Y-75988500D01*
X163304582Y-76008502D01*
G37*
%TD.AperFunction*%
%TA.AperFunction,Conductor*%
G36*
X176402046Y-69100567D02*
G01*
X176430560Y-69101500D01*
X176951793Y-69118563D01*
X176959998Y-69119102D01*
X177505303Y-69172809D01*
X177513467Y-69173884D01*
X178054094Y-69263143D01*
X178062180Y-69264751D01*
X178595845Y-69389183D01*
X178603771Y-69391308D01*
X179128136Y-69550372D01*
X179135914Y-69553011D01*
X179648767Y-69746036D01*
X179656363Y-69749183D01*
X180155493Y-69975335D01*
X180162857Y-69978967D01*
X180632161Y-70229815D01*
X180646113Y-70237273D01*
X180653254Y-70241396D01*
X181118562Y-70530743D01*
X181125417Y-70535323D01*
X181570816Y-70854491D01*
X181577358Y-70859511D01*
X181962923Y-71175937D01*
X182000918Y-71207118D01*
X182007117Y-71212554D01*
X182407043Y-71587126D01*
X182412873Y-71592956D01*
X182787445Y-71992882D01*
X182792881Y-71999081D01*
X183140488Y-72422641D01*
X183145508Y-72429183D01*
X183464676Y-72874582D01*
X183469256Y-72881437D01*
X183758603Y-73346745D01*
X183762726Y-73353886D01*
X184021024Y-73837126D01*
X184024671Y-73844521D01*
X184250812Y-74343626D01*
X184253967Y-74351243D01*
X184446982Y-74864070D01*
X184449632Y-74871878D01*
X184608686Y-75396209D01*
X184610821Y-75404174D01*
X184735248Y-75937819D01*
X184736856Y-75945905D01*
X184826114Y-76486527D01*
X184827190Y-76494702D01*
X184880896Y-77039989D01*
X184881436Y-77048216D01*
X184899433Y-77597953D01*
X184899500Y-77602076D01*
X184899500Y-125597923D01*
X184899433Y-125602046D01*
X184881436Y-126151783D01*
X184880896Y-126160010D01*
X184827190Y-126705297D01*
X184826114Y-126713472D01*
X184736856Y-127254094D01*
X184735248Y-127262180D01*
X184610821Y-127795825D01*
X184608686Y-127803790D01*
X184449632Y-128328121D01*
X184446982Y-128335929D01*
X184253967Y-128848756D01*
X184250812Y-128856373D01*
X184024671Y-129355478D01*
X184021024Y-129362873D01*
X183762726Y-129846113D01*
X183758603Y-129853254D01*
X183469256Y-130318562D01*
X183464676Y-130325417D01*
X183145508Y-130770816D01*
X183140488Y-130777358D01*
X182792881Y-131200918D01*
X182787445Y-131207117D01*
X182412873Y-131607043D01*
X182407043Y-131612873D01*
X182007117Y-131987445D01*
X182000918Y-131992881D01*
X181577358Y-132340488D01*
X181570816Y-132345508D01*
X181125417Y-132664676D01*
X181118562Y-132669256D01*
X180653254Y-132958603D01*
X180646113Y-132962726D01*
X180162873Y-133221024D01*
X180155478Y-133224671D01*
X179656373Y-133450812D01*
X179648756Y-133453967D01*
X179135929Y-133646982D01*
X179128121Y-133649632D01*
X178603790Y-133808686D01*
X178595825Y-133810821D01*
X178062180Y-133935248D01*
X178054094Y-133936856D01*
X177513472Y-134026114D01*
X177505297Y-134027190D01*
X176960010Y-134080896D01*
X176951783Y-134081436D01*
X176402047Y-134099433D01*
X176397924Y-134099500D01*
X128402076Y-134099500D01*
X128397953Y-134099433D01*
X127848216Y-134081436D01*
X127839989Y-134080896D01*
X127294702Y-134027190D01*
X127286527Y-134026114D01*
X126745905Y-133936856D01*
X126737819Y-133935248D01*
X126204174Y-133810821D01*
X126196209Y-133808686D01*
X125671878Y-133649632D01*
X125664070Y-133646982D01*
X125151243Y-133453967D01*
X125143626Y-133450812D01*
X124644521Y-133224671D01*
X124637126Y-133221024D01*
X124153886Y-132962726D01*
X124146745Y-132958603D01*
X123681437Y-132669256D01*
X123674582Y-132664676D01*
X123229183Y-132345508D01*
X123222641Y-132340488D01*
X122799081Y-131992881D01*
X122792882Y-131987445D01*
X122392956Y-131612873D01*
X122387126Y-131607043D01*
X122065964Y-131264142D01*
X122012548Y-131207110D01*
X122007118Y-131200918D01*
X121787127Y-130932859D01*
X121784012Y-130929063D01*
X137866500Y-130929063D01*
X137866501Y-130932858D01*
X137866959Y-130936633D01*
X137866960Y-130936643D01*
X137867697Y-130942709D01*
X137906725Y-131264142D01*
X137907632Y-131267824D01*
X137907634Y-131267832D01*
X137985677Y-131584464D01*
X137985679Y-131584472D01*
X137986589Y-131588162D01*
X137987937Y-131591716D01*
X137987940Y-131591726D01*
X138103574Y-131896630D01*
X138103578Y-131896640D01*
X138104926Y-131900193D01*
X138106691Y-131903557D01*
X138106697Y-131903569D01*
X138258240Y-132192308D01*
X138258244Y-132192315D01*
X138260013Y-132195685D01*
X138449585Y-132470329D01*
X138670881Y-132720119D01*
X138920671Y-132941415D01*
X139195315Y-133130987D01*
X139198689Y-133132758D01*
X139198691Y-133132759D01*
X139487430Y-133284302D01*
X139487435Y-133284304D01*
X139490807Y-133286074D01*
X139802838Y-133404411D01*
X140126858Y-133484275D01*
X140458141Y-133524500D01*
X145291858Y-133524499D01*
X145623142Y-133484275D01*
X145947162Y-133404411D01*
X146259193Y-133286074D01*
X146554685Y-133130987D01*
X146829329Y-132941415D01*
X147079119Y-132720119D01*
X147300415Y-132470329D01*
X147489987Y-132195685D01*
X147645074Y-131900193D01*
X147763411Y-131588162D01*
X147843275Y-131264142D01*
X147883500Y-130932859D01*
X147883499Y-125099142D01*
X147843275Y-124767858D01*
X147763411Y-124443838D01*
X147645074Y-124131807D01*
X147489987Y-123836315D01*
X147300415Y-123561671D01*
X147079119Y-123311881D01*
X146829329Y-123090585D01*
X146554685Y-122901013D01*
X146551315Y-122899244D01*
X146551308Y-122899240D01*
X146262569Y-122747697D01*
X146262557Y-122747691D01*
X146259193Y-122745926D01*
X146255640Y-122744578D01*
X146255630Y-122744574D01*
X145950726Y-122628940D01*
X145950716Y-122628937D01*
X145947162Y-122627589D01*
X145943472Y-122626679D01*
X145943464Y-122626677D01*
X145626834Y-122548635D01*
X145623142Y-122547725D01*
X145619375Y-122547267D01*
X145619361Y-122547265D01*
X145295642Y-122507959D01*
X145295636Y-122507958D01*
X145291859Y-122507500D01*
X145288050Y-122507500D01*
X140461952Y-122507500D01*
X140461935Y-122507500D01*
X140458142Y-122507501D01*
X140454367Y-122507959D01*
X140454356Y-122507960D01*
X140130637Y-122547266D01*
X140130634Y-122547266D01*
X140126858Y-122547725D01*
X140123178Y-122548631D01*
X140123167Y-122548634D01*
X139806535Y-122626677D01*
X139806523Y-122626680D01*
X139802838Y-122627589D01*
X139799288Y-122628935D01*
X139799273Y-122628940D01*
X139494369Y-122744574D01*
X139494353Y-122744581D01*
X139490807Y-122745926D01*
X139487448Y-122747688D01*
X139487430Y-122747697D01*
X139198691Y-122899240D01*
X139198676Y-122899248D01*
X139195315Y-122901013D01*
X139192186Y-122903172D01*
X139192179Y-122903177D01*
X138923809Y-123088418D01*
X138923798Y-123088426D01*
X138920671Y-123090585D01*
X138917821Y-123093109D01*
X138917817Y-123093113D01*
X138673721Y-123309364D01*
X138673712Y-123309372D01*
X138670881Y-123311881D01*
X138668372Y-123314712D01*
X138668364Y-123314721D01*
X138452113Y-123558817D01*
X138449585Y-123561671D01*
X138447426Y-123564798D01*
X138447418Y-123564809D01*
X138262177Y-123833179D01*
X138262172Y-123833186D01*
X138260013Y-123836315D01*
X138258248Y-123839676D01*
X138258240Y-123839691D01*
X138106697Y-124128430D01*
X138106688Y-124128448D01*
X138104926Y-124131807D01*
X138103581Y-124135353D01*
X138103574Y-124135369D01*
X137987940Y-124440273D01*
X137987935Y-124440288D01*
X137986589Y-124443838D01*
X137985680Y-124447523D01*
X137985677Y-124447535D01*
X137907635Y-124764165D01*
X137906725Y-124767858D01*
X137906268Y-124771621D01*
X137906265Y-124771638D01*
X137866959Y-125095357D01*
X137866500Y-125099141D01*
X137866500Y-125102948D01*
X137866500Y-125102949D01*
X137866500Y-130929047D01*
X137866500Y-130929063D01*
X121784012Y-130929063D01*
X121659511Y-130777358D01*
X121654491Y-130770816D01*
X121335323Y-130325417D01*
X121330743Y-130318562D01*
X121041396Y-129853254D01*
X121037273Y-129846113D01*
X120785439Y-129374966D01*
X120778967Y-129362857D01*
X120775335Y-129355493D01*
X120549183Y-128856363D01*
X120546032Y-128848756D01*
X120535122Y-128819768D01*
X120353011Y-128335914D01*
X120350372Y-128328136D01*
X120191308Y-127803771D01*
X120189183Y-127795845D01*
X120064751Y-127262180D01*
X120063143Y-127254094D01*
X119973885Y-126713472D01*
X119972809Y-126705297D01*
X119919103Y-126160010D01*
X119918563Y-126151782D01*
X119900567Y-125602045D01*
X119900500Y-125597923D01*
X119900500Y-114747357D01*
X130696500Y-114747357D01*
X130696501Y-114750544D01*
X130707113Y-114854426D01*
X130762885Y-115022738D01*
X130831772Y-115134421D01*
X130855972Y-115173655D01*
X130981344Y-115299027D01*
X130981346Y-115299028D01*
X130981348Y-115299030D01*
X131132262Y-115392115D01*
X131300574Y-115447887D01*
X131376637Y-115455658D01*
X131401253Y-115458173D01*
X131401255Y-115458173D01*
X131404455Y-115458500D01*
X132755544Y-115458499D01*
X132859426Y-115447887D01*
X133027738Y-115392115D01*
X133178652Y-115299030D01*
X133260906Y-115216775D01*
X133323216Y-115182752D01*
X133394032Y-115187816D01*
X133439093Y-115216775D01*
X133521348Y-115299030D01*
X133672262Y-115392115D01*
X133840574Y-115447887D01*
X133916637Y-115455658D01*
X133941253Y-115458173D01*
X133941255Y-115458173D01*
X133944455Y-115458500D01*
X135295544Y-115458499D01*
X135399426Y-115447887D01*
X135567738Y-115392115D01*
X135718652Y-115299030D01*
X135844030Y-115173652D01*
X135937115Y-115022738D01*
X135992887Y-114854426D01*
X136003500Y-114750545D01*
X136003499Y-113849456D01*
X136002873Y-113843334D01*
X136015841Y-113773535D01*
X136039121Y-113741426D01*
X138826235Y-110954312D01*
X138838619Y-110943452D01*
X138838788Y-110943322D01*
X138863987Y-110923987D01*
X138877948Y-110905791D01*
X138877952Y-110905788D01*
X138961523Y-110796877D01*
X138961522Y-110796877D01*
X138961524Y-110796876D01*
X139022838Y-110648851D01*
X139043751Y-110490000D01*
X139039578Y-110458300D01*
X139038500Y-110441855D01*
X139038500Y-102330290D01*
X139058502Y-102262169D01*
X139070860Y-102245983D01*
X139169040Y-102136944D01*
X139264527Y-101971556D01*
X139323542Y-101789928D01*
X139343504Y-101600000D01*
X139323542Y-101410072D01*
X139264527Y-101228444D01*
X139264527Y-101228443D01*
X139169041Y-101063057D01*
X139041252Y-100921133D01*
X138886753Y-100808883D01*
X138886752Y-100808882D01*
X138712288Y-100731206D01*
X138525487Y-100691500D01*
X138334513Y-100691500D01*
X138217119Y-100716453D01*
X138147711Y-100731206D01*
X137973246Y-100808883D01*
X137818747Y-100921133D01*
X137690958Y-101063057D01*
X137595472Y-101228443D01*
X137536458Y-101410070D01*
X137516496Y-101599999D01*
X137536458Y-101789929D01*
X137595472Y-101971556D01*
X137690958Y-102136942D01*
X137690960Y-102136944D01*
X137789136Y-102245980D01*
X137819853Y-102309987D01*
X137821500Y-102330290D01*
X137821500Y-105445500D01*
X137801498Y-105513621D01*
X137747842Y-105560114D01*
X137695500Y-105571500D01*
X136511362Y-105571500D01*
X136508013Y-105571859D01*
X136508013Y-105571860D01*
X136450799Y-105578011D01*
X136313794Y-105629111D01*
X136196738Y-105716738D01*
X136109111Y-105833794D01*
X136088564Y-105888883D01*
X136058011Y-105970799D01*
X136051500Y-106031362D01*
X136051500Y-107328638D01*
X136058011Y-107389201D01*
X136070244Y-107421999D01*
X136109111Y-107526205D01*
X136196738Y-107643261D01*
X136313794Y-107730888D01*
X136313795Y-107730888D01*
X136313796Y-107730889D01*
X136450799Y-107781989D01*
X136511362Y-107788500D01*
X136514731Y-107788500D01*
X137695500Y-107788500D01*
X137763621Y-107808502D01*
X137810114Y-107862158D01*
X137821500Y-107914500D01*
X137821500Y-110185760D01*
X137801498Y-110253881D01*
X137784595Y-110274855D01*
X134954854Y-113104595D01*
X134892542Y-113138621D01*
X134865759Y-113141500D01*
X133947661Y-113141500D01*
X133947641Y-113141500D01*
X133944456Y-113141501D01*
X133941279Y-113141825D01*
X133941270Y-113141826D01*
X133840573Y-113152113D01*
X133672262Y-113207885D01*
X133521346Y-113300971D01*
X133439095Y-113383222D01*
X133376783Y-113417247D01*
X133305967Y-113412181D01*
X133260905Y-113383222D01*
X133178653Y-113300971D01*
X133178652Y-113300970D01*
X133027738Y-113207885D01*
X132859426Y-113152113D01*
X132859423Y-113152112D01*
X132859421Y-113152112D01*
X132758746Y-113141826D01*
X132758725Y-113141824D01*
X132755545Y-113141500D01*
X132752339Y-113141500D01*
X131407661Y-113141500D01*
X131407641Y-113141500D01*
X131404456Y-113141501D01*
X131401279Y-113141825D01*
X131401270Y-113141826D01*
X131300573Y-113152113D01*
X131132262Y-113207885D01*
X130981344Y-113300972D01*
X130855972Y-113426344D01*
X130804829Y-113509259D01*
X130762885Y-113577262D01*
X130707113Y-113745574D01*
X130707112Y-113745578D01*
X130696826Y-113846253D01*
X130696824Y-113846275D01*
X130696500Y-113849455D01*
X130696500Y-113852659D01*
X130696500Y-113852660D01*
X130696500Y-114747338D01*
X130696500Y-114747357D01*
X119900500Y-114747357D01*
X119900500Y-102915941D01*
X125997819Y-102915941D01*
X126000581Y-102938685D01*
X126001500Y-102953873D01*
X126001500Y-107427541D01*
X126001474Y-107430079D01*
X125999352Y-107535376D01*
X126009523Y-107607048D01*
X126010364Y-107614611D01*
X126016189Y-107686769D01*
X126025624Y-107725051D01*
X126028035Y-107737494D01*
X126033573Y-107776517D01*
X126045341Y-107814280D01*
X126055108Y-107845626D01*
X126057147Y-107852940D01*
X126062788Y-107875826D01*
X126074477Y-107923248D01*
X126085925Y-107950117D01*
X126089929Y-107959515D01*
X126094305Y-107971415D01*
X126106032Y-108009046D01*
X126138370Y-108073799D01*
X126141563Y-108080705D01*
X126169944Y-108147316D01*
X126182389Y-108166996D01*
X126191014Y-108180635D01*
X126197244Y-108191682D01*
X126214854Y-108226943D01*
X126246618Y-108271034D01*
X126257164Y-108285673D01*
X126261424Y-108291980D01*
X126300117Y-108353168D01*
X126326265Y-108382684D01*
X126334179Y-108392579D01*
X126357216Y-108424557D01*
X126357218Y-108424559D01*
X126357219Y-108424560D01*
X126408400Y-108475741D01*
X126413601Y-108481266D01*
X126461625Y-108535474D01*
X126492182Y-108560422D01*
X126501577Y-108568918D01*
X127467673Y-109535014D01*
X127469402Y-109536777D01*
X127520197Y-109589660D01*
X127542426Y-109612803D01*
X127600292Y-109656286D01*
X127606236Y-109661040D01*
X127661380Y-109707946D01*
X127695118Y-109728341D01*
X127705618Y-109735433D01*
X127737132Y-109759115D01*
X127737135Y-109759117D01*
X127801226Y-109792754D01*
X127807848Y-109796488D01*
X127846830Y-109820054D01*
X127869811Y-109833947D01*
X127906381Y-109848665D01*
X127917891Y-109853985D01*
X127952795Y-109872304D01*
X128021464Y-109895228D01*
X128028600Y-109897853D01*
X128095757Y-109924882D01*
X128134232Y-109933547D01*
X128146407Y-109936941D01*
X128183818Y-109949431D01*
X128255293Y-109961045D01*
X128262721Y-109962484D01*
X128333362Y-109978395D01*
X128372712Y-109980774D01*
X128385303Y-109982174D01*
X128424221Y-109988500D01*
X128496596Y-109988500D01*
X128504203Y-109988729D01*
X128576475Y-109993102D01*
X128615707Y-109989138D01*
X128628373Y-109988500D01*
X130039128Y-109988500D01*
X130041666Y-109988526D01*
X130146959Y-109990647D01*
X130146959Y-109990646D01*
X130146962Y-109990647D01*
X130218622Y-109980476D01*
X130226187Y-109979636D01*
X130298346Y-109973811D01*
X130298348Y-109973810D01*
X130298353Y-109973810D01*
X130336658Y-109964368D01*
X130349055Y-109961966D01*
X130388103Y-109956426D01*
X130457204Y-109934892D01*
X130464520Y-109932852D01*
X130534833Y-109915523D01*
X130571115Y-109900063D01*
X130582996Y-109895694D01*
X130620633Y-109883967D01*
X130685388Y-109851626D01*
X130692283Y-109848438D01*
X130758901Y-109820056D01*
X130792223Y-109798982D01*
X130803245Y-109792765D01*
X130838528Y-109775146D01*
X130897277Y-109732820D01*
X130903561Y-109728577D01*
X130964753Y-109689883D01*
X130994270Y-109663732D01*
X131004164Y-109655819D01*
X131036145Y-109632781D01*
X131087342Y-109581582D01*
X131092833Y-109576413D01*
X131147059Y-109528375D01*
X131171998Y-109497827D01*
X131180495Y-109488429D01*
X132165064Y-108503861D01*
X132166775Y-108502183D01*
X132242802Y-108429160D01*
X132286302Y-108371269D01*
X132291024Y-108365366D01*
X132337946Y-108310205D01*
X132358343Y-108276462D01*
X132365428Y-108265973D01*
X132389117Y-108234450D01*
X132422753Y-108170359D01*
X132426486Y-108163742D01*
X132463946Y-108101777D01*
X132463945Y-108101777D01*
X132463948Y-108101774D01*
X132478672Y-108065185D01*
X132483990Y-108053682D01*
X132502304Y-108018790D01*
X132525231Y-107950112D01*
X132527852Y-107942988D01*
X132554882Y-107875828D01*
X132563540Y-107837379D01*
X132566944Y-107825167D01*
X132579431Y-107787767D01*
X132591042Y-107716308D01*
X132592490Y-107708839D01*
X132603364Y-107660560D01*
X132608395Y-107638223D01*
X132610775Y-107598868D01*
X132612173Y-107586285D01*
X132618500Y-107547364D01*
X132618500Y-107474987D01*
X132618730Y-107467379D01*
X132618999Y-107462939D01*
X132623102Y-107395109D01*
X132619138Y-107355876D01*
X132618500Y-107343211D01*
X132618500Y-107057030D01*
X132638502Y-106988909D01*
X132655400Y-106967940D01*
X134459660Y-105163681D01*
X134577946Y-105024621D01*
X134577948Y-105024618D01*
X134703944Y-104816195D01*
X134703945Y-104816191D01*
X134703947Y-104816189D01*
X134794882Y-104590243D01*
X134848395Y-104352638D01*
X134863101Y-104109525D01*
X134838618Y-103867201D01*
X134775581Y-103631943D01*
X134675622Y-103409843D01*
X134673579Y-103406752D01*
X134671844Y-103404126D01*
X134650969Y-103336267D01*
X134670096Y-103267896D01*
X134723151Y-103220718D01*
X134764609Y-103209258D01*
X134776796Y-103208057D01*
X134822601Y-103203546D01*
X135017417Y-103144450D01*
X135196960Y-103048482D01*
X135196961Y-103048480D01*
X135196963Y-103048480D01*
X135354331Y-102919331D01*
X135483480Y-102761963D01*
X135483482Y-102761960D01*
X135579450Y-102582417D01*
X135638546Y-102387601D01*
X135653500Y-102235775D01*
X135653500Y-101684225D01*
X135638546Y-101532399D01*
X135579450Y-101337583D01*
X135483482Y-101158040D01*
X135483480Y-101158036D01*
X135354331Y-101000668D01*
X135196963Y-100871519D01*
X135017419Y-100775551D01*
X135017418Y-100775550D01*
X135017417Y-100775550D01*
X134822601Y-100716454D01*
X134822598Y-100716453D01*
X134822596Y-100716453D01*
X134619999Y-100696498D01*
X134417403Y-100716453D01*
X134417400Y-100716453D01*
X134417399Y-100716454D01*
X134222583Y-100775550D01*
X134222582Y-100775550D01*
X134222577Y-100775552D01*
X134044395Y-100870792D01*
X133974889Y-100885264D01*
X133925605Y-100870792D01*
X133747422Y-100775552D01*
X133747419Y-100775551D01*
X133747417Y-100775550D01*
X133552601Y-100716454D01*
X133552598Y-100716453D01*
X133552596Y-100716453D01*
X133349999Y-100696498D01*
X133147403Y-100716453D01*
X133147400Y-100716453D01*
X133147399Y-100716454D01*
X133098768Y-100731206D01*
X132952580Y-100775551D01*
X132773036Y-100871519D01*
X132615668Y-101000668D01*
X132486519Y-101158036D01*
X132390551Y-101337580D01*
X132331453Y-101532403D01*
X132316803Y-101681143D01*
X132316802Y-101681154D01*
X132316500Y-101684225D01*
X132316500Y-102235775D01*
X132316802Y-102238846D01*
X132316803Y-102238856D01*
X132331453Y-102387596D01*
X132331453Y-102387598D01*
X132331454Y-102387601D01*
X132336074Y-102402833D01*
X132341500Y-102439407D01*
X132341500Y-102962968D01*
X132321498Y-103031089D01*
X132304595Y-103052063D01*
X130002144Y-105354513D01*
X130002132Y-105354525D01*
X130000339Y-105356319D01*
X129998697Y-105358248D01*
X129998689Y-105358258D01*
X129882053Y-105495380D01*
X129756053Y-105703808D01*
X129665117Y-105929759D01*
X129611604Y-106167362D01*
X129596898Y-106410474D01*
X129606199Y-106502537D01*
X129605206Y-106535409D01*
X129601499Y-106558218D01*
X129601499Y-106748554D01*
X129581497Y-106816674D01*
X129564596Y-106837647D01*
X129467646Y-106934596D01*
X129405337Y-106968620D01*
X129378553Y-106971500D01*
X129223031Y-106971500D01*
X129154910Y-106951498D01*
X129133936Y-106934595D01*
X129055404Y-106856063D01*
X129021378Y-106793751D01*
X129018499Y-106766968D01*
X129018499Y-105161740D01*
X129018499Y-103545027D01*
X129038501Y-103476910D01*
X129055399Y-103455941D01*
X134721340Y-97789999D01*
X145136496Y-97789999D01*
X145156458Y-97979929D01*
X145215472Y-98161556D01*
X145310958Y-98326942D01*
X145310960Y-98326944D01*
X145438747Y-98468866D01*
X145593248Y-98581118D01*
X145767712Y-98658794D01*
X145954513Y-98698500D01*
X145954515Y-98698500D01*
X146145485Y-98698500D01*
X146145487Y-98698500D01*
X146332288Y-98658794D01*
X146506752Y-98581118D01*
X146661253Y-98468866D01*
X146687073Y-98440189D01*
X146747520Y-98402950D01*
X146780710Y-98398500D01*
X162094364Y-98398500D01*
X162110807Y-98399577D01*
X162142500Y-98403750D01*
X162182380Y-98398500D01*
X162182385Y-98398500D01*
X162281956Y-98385391D01*
X162301351Y-98382838D01*
X162449376Y-98321524D01*
X162544572Y-98248477D01*
X162544572Y-98248476D01*
X162561129Y-98235772D01*
X162561132Y-98235769D01*
X162562046Y-98235067D01*
X162576487Y-98223987D01*
X162595957Y-98198611D01*
X162606809Y-98186238D01*
X165972643Y-94820405D01*
X166034956Y-94786379D01*
X166061739Y-94783500D01*
X167492339Y-94783500D01*
X167495544Y-94783500D01*
X167599425Y-94772887D01*
X167767738Y-94717115D01*
X167918651Y-94624030D01*
X168044030Y-94498651D01*
X168137115Y-94347738D01*
X168192887Y-94179425D01*
X168203500Y-94075544D01*
X168203500Y-93049456D01*
X168192887Y-92945575D01*
X168137115Y-92777262D01*
X168044030Y-92626349D01*
X168044028Y-92626347D01*
X168044027Y-92626345D01*
X167918654Y-92500972D01*
X167918651Y-92500970D01*
X167767738Y-92407885D01*
X167599425Y-92352113D01*
X167599422Y-92352112D01*
X167498745Y-92341826D01*
X167498724Y-92341824D01*
X167495544Y-92341500D01*
X165244456Y-92341500D01*
X165241276Y-92341824D01*
X165241254Y-92341826D01*
X165140577Y-92352112D01*
X164972262Y-92407885D01*
X164821345Y-92500972D01*
X164695972Y-92626345D01*
X164602885Y-92777262D01*
X164547112Y-92945577D01*
X164536826Y-93046254D01*
X164536824Y-93046276D01*
X164536500Y-93049456D01*
X164536500Y-94075544D01*
X164536824Y-94078724D01*
X164536826Y-94078745D01*
X164547112Y-94179422D01*
X164547113Y-94179425D01*
X164602885Y-94347738D01*
X164602886Y-94347739D01*
X164607518Y-94361718D01*
X164603709Y-94362980D01*
X164615606Y-94406475D01*
X164594341Y-94474212D01*
X164578723Y-94493226D01*
X161927356Y-97144595D01*
X161865044Y-97178620D01*
X161838261Y-97181500D01*
X146780710Y-97181500D01*
X146712589Y-97161498D01*
X146687074Y-97139811D01*
X146661252Y-97111133D01*
X146506753Y-96998883D01*
X146506752Y-96998882D01*
X146332288Y-96921206D01*
X146145487Y-96881500D01*
X145954513Y-96881500D01*
X145829978Y-96907970D01*
X145767711Y-96921206D01*
X145593246Y-96998883D01*
X145438747Y-97111133D01*
X145310958Y-97253057D01*
X145215472Y-97418443D01*
X145156458Y-97600070D01*
X145136496Y-97789999D01*
X134721340Y-97789999D01*
X135675040Y-96836299D01*
X135676751Y-96834621D01*
X135752802Y-96761575D01*
X135796295Y-96703694D01*
X135801042Y-96697761D01*
X135847947Y-96642619D01*
X135868336Y-96608890D01*
X135875438Y-96598375D01*
X135899117Y-96566865D01*
X135899116Y-96566865D01*
X135932762Y-96502758D01*
X135936473Y-96496177D01*
X135973948Y-96434188D01*
X135988675Y-96397593D01*
X135993983Y-96386110D01*
X136012304Y-96351205D01*
X136035225Y-96282542D01*
X136037853Y-96275400D01*
X136064881Y-96208245D01*
X136064882Y-96208243D01*
X136073541Y-96169791D01*
X136076949Y-96157568D01*
X136089430Y-96120185D01*
X136089430Y-96120184D01*
X136089431Y-96120182D01*
X136101041Y-96048732D01*
X136102489Y-96041262D01*
X136103304Y-96037642D01*
X136118396Y-95970637D01*
X136120775Y-95931280D01*
X136122175Y-95918689D01*
X136128500Y-95879779D01*
X136128500Y-95807407D01*
X136128730Y-95799799D01*
X136133102Y-95727524D01*
X136129138Y-95688290D01*
X136128500Y-95675625D01*
X136128500Y-95384122D01*
X136148502Y-95316001D01*
X136202158Y-95269508D01*
X136272432Y-95259404D01*
X136337012Y-95288898D01*
X136354459Y-95307414D01*
X136371013Y-95328987D01*
X136396379Y-95348451D01*
X136408769Y-95359318D01*
X137479035Y-96429584D01*
X137513061Y-96491896D01*
X137513891Y-96506958D01*
X137515112Y-96506830D01*
X137516496Y-96519999D01*
X137516496Y-96520000D01*
X137525267Y-96603449D01*
X137536458Y-96709929D01*
X137595472Y-96891556D01*
X137690958Y-97056942D01*
X137690960Y-97056944D01*
X137818747Y-97198866D01*
X137973248Y-97311118D01*
X138147712Y-97388794D01*
X138334513Y-97428500D01*
X138334515Y-97428500D01*
X138525485Y-97428500D01*
X138525487Y-97428500D01*
X138712288Y-97388794D01*
X138886752Y-97311118D01*
X139041253Y-97198866D01*
X139169040Y-97056944D01*
X139264527Y-96891556D01*
X139323542Y-96709928D01*
X139343504Y-96520000D01*
X139323542Y-96330072D01*
X139283957Y-96208243D01*
X139264527Y-96148443D01*
X139169041Y-95983057D01*
X139041252Y-95841133D01*
X138886753Y-95728883D01*
X138886752Y-95728882D01*
X138712288Y-95651206D01*
X138525487Y-95611500D01*
X138525485Y-95611500D01*
X138434239Y-95611500D01*
X138366118Y-95591498D01*
X138345144Y-95574595D01*
X137769144Y-94998595D01*
X137735118Y-94936283D01*
X137740183Y-94865468D01*
X137782730Y-94808632D01*
X137849250Y-94783821D01*
X137858239Y-94783500D01*
X139552339Y-94783500D01*
X139555544Y-94783500D01*
X139659425Y-94772887D01*
X139827738Y-94717115D01*
X139978651Y-94624030D01*
X140020485Y-94582195D01*
X140082795Y-94548172D01*
X140153610Y-94553236D01*
X140210446Y-94595782D01*
X140235258Y-94662302D01*
X140220167Y-94731676D01*
X140218698Y-94734292D01*
X140135472Y-94878443D01*
X140076458Y-95060070D01*
X140056496Y-95249999D01*
X140076458Y-95439929D01*
X140135472Y-95621556D01*
X140230958Y-95786942D01*
X140245959Y-95803602D01*
X140358747Y-95928866D01*
X140513248Y-96041118D01*
X140687712Y-96118794D01*
X140874513Y-96158500D01*
X140874515Y-96158500D01*
X141065485Y-96158500D01*
X141065487Y-96158500D01*
X141252288Y-96118794D01*
X141426752Y-96041118D01*
X141581253Y-95928866D01*
X141709040Y-95786944D01*
X141804527Y-95621556D01*
X141863542Y-95439928D01*
X141883504Y-95250000D01*
X141863542Y-95060072D01*
X141818192Y-94920499D01*
X141804527Y-94878443D01*
X141709041Y-94713057D01*
X141635863Y-94631783D01*
X141605146Y-94567775D01*
X141603500Y-94547473D01*
X141603500Y-93412524D01*
X141623502Y-93344403D01*
X141635858Y-93328220D01*
X141709040Y-93246944D01*
X141804527Y-93081556D01*
X141863542Y-92899928D01*
X141883504Y-92710000D01*
X141863542Y-92520072D01*
X141820960Y-92389020D01*
X141804527Y-92338443D01*
X141709041Y-92173057D01*
X141614899Y-92068502D01*
X141581253Y-92031134D01*
X141570876Y-92023595D01*
X141426753Y-91918883D01*
X141426752Y-91918882D01*
X141253394Y-91841698D01*
X141199300Y-91795720D01*
X141178651Y-91727793D01*
X141198003Y-91659485D01*
X141215546Y-91637502D01*
X145847643Y-87005405D01*
X145909956Y-86971379D01*
X145936739Y-86968500D01*
X147280115Y-86968500D01*
X159715761Y-86968500D01*
X159783882Y-86988502D01*
X159804856Y-87005405D01*
X161609035Y-88809584D01*
X161643061Y-88871896D01*
X161643891Y-88886958D01*
X161645112Y-88886830D01*
X161666458Y-89089929D01*
X161725472Y-89271556D01*
X161820958Y-89436942D01*
X161820960Y-89436944D01*
X161948747Y-89578866D01*
X162103248Y-89691118D01*
X162277712Y-89768794D01*
X162464513Y-89808500D01*
X162464515Y-89808500D01*
X162655485Y-89808500D01*
X162655487Y-89808500D01*
X162842288Y-89768794D01*
X163016752Y-89691118D01*
X163171253Y-89578866D01*
X163299040Y-89436944D01*
X163394527Y-89271556D01*
X163453542Y-89089928D01*
X163473504Y-88900000D01*
X163453542Y-88710072D01*
X163394527Y-88528444D01*
X163394527Y-88528443D01*
X163299041Y-88363057D01*
X163197074Y-88249811D01*
X163171253Y-88221134D01*
X163166851Y-88217936D01*
X163016753Y-88108883D01*
X163016752Y-88108882D01*
X162842288Y-88031206D01*
X162655487Y-87991500D01*
X162655485Y-87991500D01*
X162564239Y-87991500D01*
X162496118Y-87971498D01*
X162475144Y-87954595D01*
X160484315Y-85963766D01*
X160473448Y-85951375D01*
X160453986Y-85926011D01*
X160430117Y-85907695D01*
X160430102Y-85907685D01*
X160422074Y-85901525D01*
X160422072Y-85901523D01*
X160347733Y-85844480D01*
X160326875Y-85828475D01*
X160222204Y-85785119D01*
X160178851Y-85767162D01*
X160178850Y-85767161D01*
X160178848Y-85767161D01*
X160159454Y-85764607D01*
X160059895Y-85751501D01*
X160059875Y-85751499D01*
X160020000Y-85746249D01*
X159992961Y-85749809D01*
X159988307Y-85750422D01*
X159971864Y-85751500D01*
X145680636Y-85751500D01*
X145664190Y-85750422D01*
X145632499Y-85746249D01*
X145592627Y-85751499D01*
X145592616Y-85751500D01*
X145592615Y-85751500D01*
X145592612Y-85751500D01*
X145592605Y-85751501D01*
X145473651Y-85767161D01*
X145422854Y-85788201D01*
X145386937Y-85803079D01*
X145366499Y-85811544D01*
X145325622Y-85828476D01*
X145230439Y-85901514D01*
X145229319Y-85902364D01*
X145198516Y-85926007D01*
X145179045Y-85951381D01*
X145168181Y-85963768D01*
X140478595Y-90653355D01*
X140416283Y-90687381D01*
X140345468Y-90682316D01*
X140288632Y-90639769D01*
X140263821Y-90573249D01*
X140263500Y-90564260D01*
X140263500Y-90077661D01*
X140263500Y-90074456D01*
X140252887Y-89970575D01*
X140197115Y-89802262D01*
X140104030Y-89651349D01*
X140104028Y-89651347D01*
X140104027Y-89651345D01*
X139978654Y-89525972D01*
X139950328Y-89508500D01*
X139827738Y-89432885D01*
X139659425Y-89377113D01*
X139659422Y-89377112D01*
X139558745Y-89366826D01*
X139558724Y-89366824D01*
X139555544Y-89366500D01*
X137304456Y-89366500D01*
X137301276Y-89366824D01*
X137301254Y-89366826D01*
X137200577Y-89377112D01*
X137032262Y-89432885D01*
X136881345Y-89525972D01*
X136755972Y-89651345D01*
X136662885Y-89802262D01*
X136607112Y-89970577D01*
X136596826Y-90071254D01*
X136596824Y-90071276D01*
X136596500Y-90074456D01*
X136596500Y-91100544D01*
X136596824Y-91103724D01*
X136596826Y-91103745D01*
X136607112Y-91204422D01*
X136607113Y-91204425D01*
X136662885Y-91372738D01*
X136662886Y-91372739D01*
X136667518Y-91386718D01*
X136663709Y-91387980D01*
X136675606Y-91431475D01*
X136654341Y-91499212D01*
X136638723Y-91518226D01*
X136408767Y-91748182D01*
X136396380Y-91759047D01*
X136371012Y-91778513D01*
X136354461Y-91800083D01*
X136297122Y-91841949D01*
X136226251Y-91846169D01*
X136164349Y-91811404D01*
X136131069Y-91748690D01*
X136128500Y-91723377D01*
X136128500Y-88307031D01*
X136148502Y-88238910D01*
X136165405Y-88217936D01*
X140737937Y-83645405D01*
X140800249Y-83611379D01*
X140827032Y-83608500D01*
X151157221Y-83608500D01*
X164136543Y-83608500D01*
X164139081Y-83608526D01*
X164244374Y-83610647D01*
X164244374Y-83610646D01*
X164244377Y-83610647D01*
X164316037Y-83600476D01*
X164323602Y-83599636D01*
X164395761Y-83593811D01*
X164395763Y-83593810D01*
X164395768Y-83593810D01*
X164434073Y-83584368D01*
X164446470Y-83581966D01*
X164485518Y-83576426D01*
X164554619Y-83554892D01*
X164561935Y-83552852D01*
X164632248Y-83535523D01*
X164668530Y-83520063D01*
X164680411Y-83515694D01*
X164704408Y-83508216D01*
X164775394Y-83507049D01*
X164835743Y-83544445D01*
X164866295Y-83608532D01*
X164867787Y-83633586D01*
X164867626Y-83637578D01*
X164867626Y-83637579D01*
X164857819Y-83880939D01*
X164887177Y-84122720D01*
X164954939Y-84356662D01*
X165023253Y-84500631D01*
X165059350Y-84576705D01*
X165197708Y-84777150D01*
X165366420Y-84952797D01*
X165366425Y-84952802D01*
X165561135Y-85099117D01*
X165776795Y-85212304D01*
X166007818Y-85289431D01*
X166007821Y-85289432D01*
X166248219Y-85328500D01*
X166248221Y-85328500D01*
X169502969Y-85328500D01*
X169571090Y-85348502D01*
X169592064Y-85365405D01*
X171174595Y-86947936D01*
X171208621Y-87010248D01*
X171211500Y-87037031D01*
X171211500Y-90939372D01*
X171191498Y-91007493D01*
X171137842Y-91053986D01*
X171067568Y-91064090D01*
X171002988Y-91034596D01*
X170976381Y-91002372D01*
X170919041Y-90903057D01*
X170791252Y-90761133D01*
X170682770Y-90682316D01*
X170636752Y-90648882D01*
X170462288Y-90571206D01*
X170275487Y-90531500D01*
X170084513Y-90531500D01*
X169959978Y-90557970D01*
X169897711Y-90571206D01*
X169723246Y-90648883D01*
X169568747Y-90761133D01*
X169542926Y-90789811D01*
X169482480Y-90827050D01*
X169449290Y-90831500D01*
X168329500Y-90831500D01*
X168261379Y-90811498D01*
X168214886Y-90757842D01*
X168203500Y-90705500D01*
X168203500Y-90077661D01*
X168203500Y-90077660D01*
X168203500Y-90074456D01*
X168192887Y-89970575D01*
X168137115Y-89802262D01*
X168044030Y-89651349D01*
X168044028Y-89651347D01*
X168044027Y-89651345D01*
X167918654Y-89525972D01*
X167890328Y-89508500D01*
X167767738Y-89432885D01*
X167599425Y-89377113D01*
X167599422Y-89377112D01*
X167498745Y-89366826D01*
X167498724Y-89366824D01*
X167495544Y-89366500D01*
X165244456Y-89366500D01*
X165241276Y-89366824D01*
X165241254Y-89366826D01*
X165140577Y-89377112D01*
X164972262Y-89432885D01*
X164821345Y-89525972D01*
X164695972Y-89651345D01*
X164602885Y-89802262D01*
X164547112Y-89970577D01*
X164536826Y-90071254D01*
X164536824Y-90071276D01*
X164536500Y-90074456D01*
X164536500Y-91100544D01*
X164536824Y-91103724D01*
X164536826Y-91103745D01*
X164547112Y-91204422D01*
X164547113Y-91204425D01*
X164602885Y-91372738D01*
X164680896Y-91499212D01*
X164695972Y-91523654D01*
X164821345Y-91649027D01*
X164821347Y-91649028D01*
X164821349Y-91649030D01*
X164972262Y-91742115D01*
X165140575Y-91797887D01*
X165201694Y-91804131D01*
X165241254Y-91808173D01*
X165241256Y-91808173D01*
X165244456Y-91808500D01*
X166676127Y-91808500D01*
X166744248Y-91828502D01*
X166776089Y-91857796D01*
X166788512Y-91873986D01*
X166820425Y-91898474D01*
X166820437Y-91898484D01*
X166915624Y-91971524D01*
X167063649Y-92032838D01*
X167073346Y-92034114D01*
X167083042Y-92035391D01*
X167099122Y-92037507D01*
X167182615Y-92048500D01*
X167182620Y-92048500D01*
X167222500Y-92053750D01*
X167254192Y-92049577D01*
X167270636Y-92048500D01*
X169449290Y-92048500D01*
X169517411Y-92068502D01*
X169542926Y-92090189D01*
X169568747Y-92118866D01*
X169723248Y-92231118D01*
X169897712Y-92308794D01*
X170084513Y-92348500D01*
X170084515Y-92348500D01*
X170275485Y-92348500D01*
X170275487Y-92348500D01*
X170462288Y-92308794D01*
X170636752Y-92231118D01*
X170791253Y-92118866D01*
X170919040Y-91976944D01*
X170976380Y-91877627D01*
X171027763Y-91828634D01*
X171097477Y-91815198D01*
X171163388Y-91841584D01*
X171204570Y-91899416D01*
X171211500Y-91940627D01*
X171211500Y-92032967D01*
X171191498Y-92101088D01*
X171174595Y-92122062D01*
X161504983Y-101791673D01*
X161503173Y-101793448D01*
X161427198Y-101866424D01*
X161383718Y-101924285D01*
X161378966Y-101930226D01*
X161332055Y-101985377D01*
X161311660Y-102019115D01*
X161304564Y-102029619D01*
X161280883Y-102061135D01*
X161280881Y-102061137D01*
X161280882Y-102061137D01*
X161247249Y-102125216D01*
X161243513Y-102131840D01*
X161206052Y-102193810D01*
X161191330Y-102230389D01*
X161186011Y-102241896D01*
X161167697Y-102276791D01*
X161144770Y-102345462D01*
X161142145Y-102352600D01*
X161115116Y-102419761D01*
X161106454Y-102458219D01*
X161103050Y-102470429D01*
X161090568Y-102507818D01*
X161078957Y-102579267D01*
X161077510Y-102586740D01*
X161061604Y-102657362D01*
X161059224Y-102696715D01*
X161057822Y-102709317D01*
X161051500Y-102748218D01*
X161051500Y-102820596D01*
X161051270Y-102828204D01*
X161046898Y-102900475D01*
X161050862Y-102939709D01*
X161051500Y-102952374D01*
X161051500Y-106663541D01*
X161051474Y-106666079D01*
X161049352Y-106771376D01*
X161059523Y-106843048D01*
X161060364Y-106850611D01*
X161066189Y-106922769D01*
X161075624Y-106961051D01*
X161078035Y-106973494D01*
X161083573Y-107012517D01*
X161095341Y-107050280D01*
X161105108Y-107081626D01*
X161107147Y-107088940D01*
X161124476Y-107159244D01*
X161124477Y-107159248D01*
X161138363Y-107191841D01*
X161139929Y-107195515D01*
X161144305Y-107207415D01*
X161156032Y-107245046D01*
X161188370Y-107309799D01*
X161191563Y-107316705D01*
X161219944Y-107383316D01*
X161241014Y-107416635D01*
X161247244Y-107427682D01*
X161264854Y-107462943D01*
X161273531Y-107474987D01*
X161307164Y-107521673D01*
X161311424Y-107527980D01*
X161349694Y-107588500D01*
X161350117Y-107589168D01*
X161376265Y-107618684D01*
X161384179Y-107628579D01*
X161407216Y-107660557D01*
X161407218Y-107660559D01*
X161407219Y-107660560D01*
X161458400Y-107711741D01*
X161463601Y-107717266D01*
X161511625Y-107771474D01*
X161542182Y-107796422D01*
X161551577Y-107804918D01*
X163281673Y-109535014D01*
X163283402Y-109536777D01*
X163334197Y-109589660D01*
X163356426Y-109612803D01*
X163414287Y-109656282D01*
X163420232Y-109661037D01*
X163475379Y-109707946D01*
X163509122Y-109728344D01*
X163519628Y-109735441D01*
X163551131Y-109759115D01*
X163551135Y-109759117D01*
X163615241Y-109792762D01*
X163621837Y-109796482D01*
X163683811Y-109833947D01*
X163720381Y-109848665D01*
X163731891Y-109853985D01*
X163766795Y-109872304D01*
X163835464Y-109895228D01*
X163842600Y-109897853D01*
X163909757Y-109924882D01*
X163948232Y-109933547D01*
X163960407Y-109936941D01*
X163997818Y-109949431D01*
X164069293Y-109961045D01*
X164076721Y-109962484D01*
X164147362Y-109978395D01*
X164186714Y-109980775D01*
X164199300Y-109982174D01*
X164238221Y-109988500D01*
X164310607Y-109988500D01*
X164318215Y-109988730D01*
X164390475Y-109993101D01*
X164424438Y-109989669D01*
X164429701Y-109989138D01*
X164442365Y-109988500D01*
X168139128Y-109988500D01*
X168141666Y-109988526D01*
X168246959Y-109990647D01*
X168246959Y-109990646D01*
X168246962Y-109990647D01*
X168318622Y-109980476D01*
X168326187Y-109979636D01*
X168398346Y-109973811D01*
X168398348Y-109973810D01*
X168398353Y-109973810D01*
X168436658Y-109964368D01*
X168449055Y-109961966D01*
X168488103Y-109956426D01*
X168557204Y-109934892D01*
X168564520Y-109932852D01*
X168634833Y-109915523D01*
X168671115Y-109900063D01*
X168682996Y-109895694D01*
X168720633Y-109883967D01*
X168785388Y-109851626D01*
X168792283Y-109848438D01*
X168858901Y-109820056D01*
X168892223Y-109798982D01*
X168903245Y-109792765D01*
X168938528Y-109775146D01*
X168997277Y-109732820D01*
X169003561Y-109728577D01*
X169064753Y-109689883D01*
X169094270Y-109663732D01*
X169104164Y-109655819D01*
X169136145Y-109632781D01*
X169187342Y-109581582D01*
X169192833Y-109576413D01*
X169247059Y-109528375D01*
X169271998Y-109497827D01*
X169280495Y-109488429D01*
X170265064Y-108503861D01*
X170266775Y-108502183D01*
X170342802Y-108429160D01*
X170386302Y-108371269D01*
X170391024Y-108365366D01*
X170437946Y-108310205D01*
X170458343Y-108276462D01*
X170465428Y-108265973D01*
X170489117Y-108234450D01*
X170522753Y-108170359D01*
X170526486Y-108163742D01*
X170563946Y-108101777D01*
X170563945Y-108101777D01*
X170563948Y-108101774D01*
X170578672Y-108065185D01*
X170583990Y-108053682D01*
X170602304Y-108018790D01*
X170625231Y-107950112D01*
X170627852Y-107942988D01*
X170654882Y-107875828D01*
X170663540Y-107837379D01*
X170666944Y-107825167D01*
X170679431Y-107787767D01*
X170691042Y-107716308D01*
X170692490Y-107708839D01*
X170703364Y-107660560D01*
X170708395Y-107638223D01*
X170710775Y-107598868D01*
X170712174Y-107586282D01*
X170718500Y-107547364D01*
X170718499Y-107474987D01*
X170718729Y-107467379D01*
X170723102Y-107395109D01*
X170719138Y-107355876D01*
X170718500Y-107343211D01*
X170718500Y-107328638D01*
X174151500Y-107328638D01*
X174158011Y-107389201D01*
X174170244Y-107421999D01*
X174209111Y-107526205D01*
X174296738Y-107643261D01*
X174413794Y-107730888D01*
X174413795Y-107730888D01*
X174413796Y-107730889D01*
X174550799Y-107781989D01*
X174611362Y-107788500D01*
X174614731Y-107788500D01*
X175905269Y-107788500D01*
X175908638Y-107788500D01*
X175969201Y-107781989D01*
X176106204Y-107730889D01*
X176223261Y-107643261D01*
X176310889Y-107526204D01*
X176361989Y-107389201D01*
X176368500Y-107328638D01*
X176368500Y-106031362D01*
X176361989Y-105970799D01*
X176310889Y-105833796D01*
X176310888Y-105833794D01*
X176223261Y-105716738D01*
X176106205Y-105629111D01*
X176037702Y-105603561D01*
X175969201Y-105578011D01*
X175908638Y-105571500D01*
X174611362Y-105571500D01*
X174608013Y-105571859D01*
X174608013Y-105571860D01*
X174550799Y-105578011D01*
X174413794Y-105629111D01*
X174296738Y-105716738D01*
X174209111Y-105833794D01*
X174188564Y-105888883D01*
X174158011Y-105970799D01*
X174151500Y-106031362D01*
X174151500Y-107328638D01*
X170718500Y-107328638D01*
X170718500Y-107311029D01*
X170738502Y-107242908D01*
X170755400Y-107221939D01*
X172505040Y-105472299D01*
X172506750Y-105470622D01*
X172582802Y-105397575D01*
X172626302Y-105339685D01*
X172631029Y-105333775D01*
X172677946Y-105278621D01*
X172698344Y-105244878D01*
X172705439Y-105234372D01*
X172729117Y-105202865D01*
X172762763Y-105138755D01*
X172766494Y-105132143D01*
X172803946Y-105070191D01*
X172803947Y-105070189D01*
X172818670Y-105033605D01*
X172823973Y-105022129D01*
X172842304Y-104987205D01*
X172865226Y-104918539D01*
X172867847Y-104911413D01*
X172894882Y-104844243D01*
X172903540Y-104805794D01*
X172906944Y-104793582D01*
X172919431Y-104756182D01*
X172931042Y-104684723D01*
X172932490Y-104677254D01*
X172948395Y-104606636D01*
X172950775Y-104567281D01*
X172952173Y-104554703D01*
X172958500Y-104515779D01*
X172958500Y-104443391D01*
X172958730Y-104435783D01*
X172963101Y-104363525D01*
X172959138Y-104324298D01*
X172958500Y-104311634D01*
X172958500Y-103827753D01*
X172958500Y-103827752D01*
X172958500Y-103825203D01*
X172943810Y-103643232D01*
X172885523Y-103406752D01*
X172868143Y-103365960D01*
X172859843Y-103295450D01*
X172890981Y-103231646D01*
X172947483Y-103195998D01*
X173117417Y-103144450D01*
X173296960Y-103048482D01*
X173296961Y-103048480D01*
X173296963Y-103048480D01*
X173454331Y-102919331D01*
X173583480Y-102761963D01*
X173583482Y-102761960D01*
X173679450Y-102582417D01*
X173738546Y-102387601D01*
X173753500Y-102235775D01*
X173753500Y-101684225D01*
X173738546Y-101532399D01*
X173679450Y-101337583D01*
X173583482Y-101158040D01*
X173583480Y-101158036D01*
X173454331Y-101000668D01*
X173296963Y-100871519D01*
X173117419Y-100775551D01*
X173117418Y-100775550D01*
X173117417Y-100775550D01*
X172922601Y-100716454D01*
X172922598Y-100716453D01*
X172922596Y-100716453D01*
X172719999Y-100696498D01*
X172517403Y-100716453D01*
X172517400Y-100716453D01*
X172517399Y-100716454D01*
X172322583Y-100775550D01*
X172322582Y-100775550D01*
X172322577Y-100775552D01*
X172144395Y-100870792D01*
X172074889Y-100885264D01*
X172025605Y-100870792D01*
X171847422Y-100775552D01*
X171847419Y-100775551D01*
X171847417Y-100775550D01*
X171652601Y-100716454D01*
X171652598Y-100716453D01*
X171652596Y-100716453D01*
X171449999Y-100696498D01*
X171247403Y-100716453D01*
X171247400Y-100716453D01*
X171247399Y-100716454D01*
X171198768Y-100731206D01*
X171052580Y-100775551D01*
X170873036Y-100871519D01*
X170715668Y-101000668D01*
X170586519Y-101158036D01*
X170490551Y-101337580D01*
X170431453Y-101532403D01*
X170416803Y-101681143D01*
X170416802Y-101681154D01*
X170416500Y-101684225D01*
X170416500Y-102235775D01*
X170416802Y-102238846D01*
X170416803Y-102238856D01*
X170431453Y-102387596D01*
X170431453Y-102387598D01*
X170431454Y-102387601D01*
X170436074Y-102402833D01*
X170441500Y-102439407D01*
X170441500Y-102709348D01*
X170421498Y-102777469D01*
X170402783Y-102800219D01*
X170317202Y-102882420D01*
X170317198Y-102882424D01*
X170317198Y-102882425D01*
X170274152Y-102939709D01*
X170170880Y-103077139D01*
X170057697Y-103292791D01*
X169980567Y-103523821D01*
X169947063Y-103729984D01*
X169916393Y-103794014D01*
X169911790Y-103798867D01*
X168154984Y-105555672D01*
X168153171Y-105557449D01*
X168106749Y-105602037D01*
X168064410Y-105628651D01*
X167946738Y-105716738D01*
X167859111Y-105833794D01*
X167838564Y-105888883D01*
X167808011Y-105970799D01*
X167801500Y-106031362D01*
X167801500Y-106034730D01*
X167801500Y-106068829D01*
X167795001Y-106108773D01*
X167794759Y-106109497D01*
X167792147Y-106116594D01*
X167765117Y-106183756D01*
X167756454Y-106222219D01*
X167753050Y-106234429D01*
X167740568Y-106271818D01*
X167728957Y-106343267D01*
X167727510Y-106350740D01*
X167711604Y-106421362D01*
X167709224Y-106460715D01*
X167707822Y-106473317D01*
X167701500Y-106512218D01*
X167701500Y-106584596D01*
X167701270Y-106592204D01*
X167696898Y-106664475D01*
X167700862Y-106703709D01*
X167701500Y-106716374D01*
X167701500Y-106748552D01*
X167681498Y-106816673D01*
X167664595Y-106837647D01*
X167567646Y-106934596D01*
X167505337Y-106968620D01*
X167478553Y-106971500D01*
X165037032Y-106971500D01*
X164968911Y-106951498D01*
X164947936Y-106934595D01*
X164105404Y-106092062D01*
X164071379Y-106029750D01*
X164068500Y-106002967D01*
X164068500Y-103547030D01*
X164088502Y-103478909D01*
X164105400Y-103457940D01*
X173775040Y-93788299D01*
X173776751Y-93786621D01*
X173852802Y-93713575D01*
X173896295Y-93655694D01*
X173901042Y-93649761D01*
X173947947Y-93594619D01*
X173968336Y-93560890D01*
X173975438Y-93550375D01*
X173999117Y-93518865D01*
X174032756Y-93454770D01*
X174036473Y-93448177D01*
X174073948Y-93386188D01*
X174088675Y-93349593D01*
X174093983Y-93338110D01*
X174112304Y-93303205D01*
X174135235Y-93234513D01*
X174137841Y-93227427D01*
X174164882Y-93160243D01*
X174173540Y-93121794D01*
X174176944Y-93109582D01*
X174189431Y-93072182D01*
X174201048Y-93000693D01*
X174202481Y-92993294D01*
X174218395Y-92922637D01*
X174220774Y-92883285D01*
X174222174Y-92870698D01*
X174228500Y-92831779D01*
X174228500Y-92759401D01*
X174228730Y-92751794D01*
X174231258Y-92710000D01*
X174233102Y-92679524D01*
X174229138Y-92640291D01*
X174228500Y-92627626D01*
X174228500Y-92513738D01*
X174248502Y-92445617D01*
X174302158Y-92399124D01*
X174372432Y-92389020D01*
X174437012Y-92418514D01*
X174443580Y-92424629D01*
X175805525Y-93786573D01*
X177154595Y-95135643D01*
X177188621Y-95197955D01*
X177191500Y-95224738D01*
X177191500Y-109195760D01*
X177171498Y-109263881D01*
X177154595Y-109284855D01*
X173054854Y-113384595D01*
X172992542Y-113418621D01*
X172965759Y-113421500D01*
X172047661Y-113421500D01*
X172047641Y-113421500D01*
X172044456Y-113421501D01*
X172041279Y-113421825D01*
X172041270Y-113421826D01*
X171940573Y-113432113D01*
X171772262Y-113487885D01*
X171621344Y-113580972D01*
X171539095Y-113663222D01*
X171476783Y-113697248D01*
X171405968Y-113692183D01*
X171360905Y-113663222D01*
X171278655Y-113580972D01*
X171272640Y-113577262D01*
X171127738Y-113487885D01*
X170959426Y-113432113D01*
X170959423Y-113432112D01*
X170959421Y-113432112D01*
X170858746Y-113421826D01*
X170858725Y-113421824D01*
X170855545Y-113421500D01*
X170852339Y-113421500D01*
X169507661Y-113421500D01*
X169507641Y-113421500D01*
X169504456Y-113421501D01*
X169501279Y-113421825D01*
X169501270Y-113421826D01*
X169400573Y-113432113D01*
X169232262Y-113487885D01*
X169081344Y-113580972D01*
X168955972Y-113706344D01*
X168862882Y-113857266D01*
X168861932Y-113860136D01*
X168821517Y-113918506D01*
X168755960Y-113945761D01*
X168742329Y-113946500D01*
X166456594Y-113946500D01*
X166388473Y-113926498D01*
X166367499Y-113909595D01*
X158749244Y-106291339D01*
X158736171Y-106275021D01*
X158684348Y-106226356D01*
X158681506Y-106223601D01*
X158664574Y-106206669D01*
X158661770Y-106203865D01*
X158658575Y-106201386D01*
X158649554Y-106193682D01*
X158617320Y-106163413D01*
X158599567Y-106153653D01*
X158583041Y-106142797D01*
X158567041Y-106130386D01*
X158526466Y-106112828D01*
X158515804Y-106107604D01*
X158477063Y-106086305D01*
X158463313Y-106082775D01*
X158457437Y-106081266D01*
X158438731Y-106074862D01*
X158420145Y-106066819D01*
X158376475Y-106059902D01*
X158364853Y-106057495D01*
X158355751Y-106055158D01*
X158322030Y-106046500D01*
X158322029Y-106046500D01*
X158301776Y-106046500D01*
X158282066Y-106044949D01*
X158262057Y-106041779D01*
X158218039Y-106045941D01*
X158206181Y-106046500D01*
X154378200Y-106046500D01*
X154310079Y-106026498D01*
X154284565Y-106004812D01*
X154281253Y-106001133D01*
X154126753Y-105888883D01*
X154126752Y-105888882D01*
X153952288Y-105811206D01*
X153765487Y-105771500D01*
X153574513Y-105771500D01*
X153449979Y-105797970D01*
X153387711Y-105811206D01*
X153213246Y-105888883D01*
X153058747Y-106001133D01*
X152930958Y-106143057D01*
X152835472Y-106308443D01*
X152776458Y-106490070D01*
X152756496Y-106680000D01*
X152776458Y-106869929D01*
X152835472Y-107051556D01*
X152930958Y-107216942D01*
X152930960Y-107216944D01*
X153058747Y-107358866D01*
X153213248Y-107471118D01*
X153387712Y-107548794D01*
X153574513Y-107588500D01*
X153574515Y-107588500D01*
X153765485Y-107588500D01*
X153765487Y-107588500D01*
X153952288Y-107548794D01*
X154126752Y-107471118D01*
X154281253Y-107358866D01*
X154284564Y-107355188D01*
X154345012Y-107317949D01*
X154378200Y-107313500D01*
X157927406Y-107313500D01*
X157995527Y-107333502D01*
X158016501Y-107350405D01*
X165634751Y-114968655D01*
X165647835Y-114984985D01*
X165699666Y-115033657D01*
X165702509Y-115036413D01*
X165722230Y-115056134D01*
X165725351Y-115058555D01*
X165725359Y-115058562D01*
X165725425Y-115058613D01*
X165734445Y-115066317D01*
X165766679Y-115096586D01*
X165784435Y-115106347D01*
X165800951Y-115117196D01*
X165816959Y-115129613D01*
X165857525Y-115147167D01*
X165868188Y-115152391D01*
X165906935Y-115173693D01*
X165906937Y-115173693D01*
X165906940Y-115173695D01*
X165926574Y-115178736D01*
X165945259Y-115185134D01*
X165963855Y-115193181D01*
X166007530Y-115200098D01*
X166019125Y-115202498D01*
X166061970Y-115213500D01*
X166082224Y-115213500D01*
X166101934Y-115215051D01*
X166121942Y-115218220D01*
X166121942Y-115218219D01*
X166121943Y-115218220D01*
X166165961Y-115214058D01*
X166177819Y-115213500D01*
X168742329Y-115213500D01*
X168810450Y-115233502D01*
X168856943Y-115287158D01*
X168861932Y-115299864D01*
X168862882Y-115302733D01*
X168862884Y-115302737D01*
X168862885Y-115302738D01*
X168952413Y-115447886D01*
X168955972Y-115453655D01*
X169081344Y-115579027D01*
X169081346Y-115579028D01*
X169081348Y-115579030D01*
X169232262Y-115672115D01*
X169400574Y-115727887D01*
X169476637Y-115735658D01*
X169501253Y-115738173D01*
X169501255Y-115738173D01*
X169504455Y-115738500D01*
X170855544Y-115738499D01*
X170959426Y-115727887D01*
X171127738Y-115672115D01*
X171278652Y-115579030D01*
X171278654Y-115579026D01*
X171360905Y-115496778D01*
X171423217Y-115462752D01*
X171494032Y-115467817D01*
X171539095Y-115496778D01*
X171621344Y-115579027D01*
X171621346Y-115579028D01*
X171621348Y-115579030D01*
X171772262Y-115672115D01*
X171940574Y-115727887D01*
X172016637Y-115735658D01*
X172041253Y-115738173D01*
X172041255Y-115738173D01*
X172044455Y-115738500D01*
X173395544Y-115738499D01*
X173499426Y-115727887D01*
X173667738Y-115672115D01*
X173818652Y-115579030D01*
X173944030Y-115453652D01*
X174037115Y-115302738D01*
X174092887Y-115134426D01*
X174102600Y-115039346D01*
X174103173Y-115033746D01*
X174103173Y-115033745D01*
X174103500Y-115030545D01*
X174103499Y-114129456D01*
X174102873Y-114123334D01*
X174115841Y-114053535D01*
X174139121Y-114021426D01*
X178196235Y-109964312D01*
X178208619Y-109953452D01*
X178213859Y-109949431D01*
X178233987Y-109933987D01*
X178247948Y-109915791D01*
X178247952Y-109915788D01*
X178260013Y-109900071D01*
X178321411Y-109820056D01*
X178331523Y-109806878D01*
X178334790Y-109798990D01*
X178392838Y-109658851D01*
X178401947Y-109589660D01*
X178408500Y-109539885D01*
X178408500Y-109539879D01*
X178413750Y-109500000D01*
X178412225Y-109488419D01*
X178409578Y-109468308D01*
X178408500Y-109451863D01*
X178408500Y-94968635D01*
X178409578Y-94952189D01*
X178411856Y-94934885D01*
X178413750Y-94920500D01*
X178408500Y-94880622D01*
X178408500Y-94880615D01*
X178392838Y-94761650D01*
X178331524Y-94613625D01*
X178298919Y-94571134D01*
X178258477Y-94518428D01*
X178258474Y-94518425D01*
X178233987Y-94486513D01*
X178233985Y-94486512D01*
X178233985Y-94486511D01*
X178208618Y-94467046D01*
X178196228Y-94456179D01*
X175270464Y-91530415D01*
X175236438Y-91468103D01*
X175235615Y-91453043D01*
X175234388Y-91453172D01*
X175232108Y-91431475D01*
X175213042Y-91250072D01*
X175164457Y-91100544D01*
X175154027Y-91068443D01*
X175058541Y-90903057D01*
X174930752Y-90761133D01*
X174822270Y-90682316D01*
X174776252Y-90648882D01*
X174601788Y-90571206D01*
X174414987Y-90531500D01*
X174414985Y-90531500D01*
X174354500Y-90531500D01*
X174286379Y-90511498D01*
X174239886Y-90457842D01*
X174228500Y-90405500D01*
X174228500Y-89934500D01*
X174248502Y-89866379D01*
X174302158Y-89819886D01*
X174354500Y-89808500D01*
X174414985Y-89808500D01*
X174414987Y-89808500D01*
X174601788Y-89768794D01*
X174776252Y-89691118D01*
X174930753Y-89578866D01*
X174956573Y-89550189D01*
X175017020Y-89512950D01*
X175050210Y-89508500D01*
X177495761Y-89508500D01*
X177563882Y-89528502D01*
X177584856Y-89545405D01*
X178119035Y-90079584D01*
X178153061Y-90141896D01*
X178153891Y-90156958D01*
X178155112Y-90156830D01*
X178176458Y-90359929D01*
X178235472Y-90541556D01*
X178330958Y-90706942D01*
X178330960Y-90706944D01*
X178458747Y-90848866D01*
X178613248Y-90961118D01*
X178787712Y-91038794D01*
X178974513Y-91078500D01*
X178974515Y-91078500D01*
X179165485Y-91078500D01*
X179165487Y-91078500D01*
X179352288Y-91038794D01*
X179526752Y-90961118D01*
X179681253Y-90848866D01*
X179809040Y-90706944D01*
X179904527Y-90541556D01*
X179963542Y-90359928D01*
X179983504Y-90170000D01*
X179963542Y-89980072D01*
X179911494Y-89819886D01*
X179904527Y-89798443D01*
X179809041Y-89633057D01*
X179681252Y-89491133D01*
X179526753Y-89378883D01*
X179526752Y-89378882D01*
X179352288Y-89301206D01*
X179165487Y-89261500D01*
X179165485Y-89261500D01*
X179074239Y-89261500D01*
X179006118Y-89241498D01*
X178985144Y-89224595D01*
X178264315Y-88503766D01*
X178253448Y-88491375D01*
X178233986Y-88466011D01*
X178210113Y-88447693D01*
X178210107Y-88447689D01*
X178202074Y-88441525D01*
X178202072Y-88441523D01*
X178106876Y-88368476D01*
X178106875Y-88368475D01*
X178002204Y-88325119D01*
X177958851Y-88307162D01*
X177958850Y-88307161D01*
X177958848Y-88307161D01*
X177939454Y-88304607D01*
X177839895Y-88291501D01*
X177839875Y-88291499D01*
X177800000Y-88286249D01*
X177772961Y-88289809D01*
X177768307Y-88290422D01*
X177751864Y-88291500D01*
X175050210Y-88291500D01*
X174982089Y-88271498D01*
X174956574Y-88249811D01*
X174930752Y-88221133D01*
X174776253Y-88108883D01*
X174776252Y-88108882D01*
X174601788Y-88031206D01*
X174414987Y-87991500D01*
X174414985Y-87991500D01*
X174354500Y-87991500D01*
X174286379Y-87971498D01*
X174239886Y-87917842D01*
X174228500Y-87865500D01*
X174228500Y-86376427D01*
X174228526Y-86373890D01*
X174230646Y-86268623D01*
X174220476Y-86196957D01*
X174219637Y-86189421D01*
X174213810Y-86117232D01*
X174204368Y-86078926D01*
X174201966Y-86066528D01*
X174196426Y-86027481D01*
X174174884Y-85958352D01*
X174172853Y-85951067D01*
X174155523Y-85880752D01*
X174140065Y-85844472D01*
X174135691Y-85832576D01*
X174123968Y-85794953D01*
X174123897Y-85794811D01*
X174091612Y-85730166D01*
X174088433Y-85723288D01*
X174060056Y-85656684D01*
X174038984Y-85623362D01*
X174032761Y-85612327D01*
X174015146Y-85577057D01*
X174015146Y-85577056D01*
X173972821Y-85518304D01*
X173968576Y-85512020D01*
X173929883Y-85450832D01*
X173929879Y-85450827D01*
X173903739Y-85421321D01*
X173895817Y-85411417D01*
X173872781Y-85379440D01*
X173858746Y-85365405D01*
X173821597Y-85328256D01*
X173816397Y-85322732D01*
X173768373Y-85268524D01*
X173737829Y-85243586D01*
X173728422Y-85235081D01*
X171258326Y-82764984D01*
X171256550Y-82763173D01*
X171183576Y-82687199D01*
X171183575Y-82687198D01*
X171125697Y-82643706D01*
X171119767Y-82638962D01*
X171064621Y-82592055D01*
X171064620Y-82592054D01*
X171030873Y-82571653D01*
X171020386Y-82564569D01*
X170988865Y-82540883D01*
X170988863Y-82540882D01*
X170988862Y-82540881D01*
X170924772Y-82507244D01*
X170918157Y-82503512D01*
X170881534Y-82481374D01*
X170856188Y-82466051D01*
X170819601Y-82451326D01*
X170808096Y-82446008D01*
X170773205Y-82427696D01*
X170773204Y-82427695D01*
X170773201Y-82427694D01*
X170704548Y-82404774D01*
X170697407Y-82402148D01*
X170630239Y-82375116D01*
X170591785Y-82366455D01*
X170579574Y-82363051D01*
X170542181Y-82350568D01*
X170470731Y-82338957D01*
X170463264Y-82337511D01*
X170441839Y-82332686D01*
X170392636Y-82321604D01*
X170353284Y-82319224D01*
X170340684Y-82317822D01*
X170316183Y-82313840D01*
X170301780Y-82311500D01*
X170301779Y-82311500D01*
X170229403Y-82311500D01*
X170221795Y-82311270D01*
X170149525Y-82306898D01*
X170149524Y-82306898D01*
X170122001Y-82309678D01*
X170110291Y-82310862D01*
X170097626Y-82311500D01*
X166379030Y-82311500D01*
X166310909Y-82291498D01*
X166264416Y-82237842D01*
X166254312Y-82167568D01*
X166283806Y-82102988D01*
X166289935Y-82096405D01*
X166289934Y-82096405D01*
X167425040Y-80961299D01*
X167426750Y-80959622D01*
X167502802Y-80886575D01*
X167546302Y-80828685D01*
X167551029Y-80822775D01*
X167597946Y-80767621D01*
X167618344Y-80733878D01*
X167625439Y-80723372D01*
X167649117Y-80691865D01*
X167682763Y-80627755D01*
X167686479Y-80621167D01*
X167723947Y-80559189D01*
X167738670Y-80522603D01*
X167743981Y-80511114D01*
X167762304Y-80476205D01*
X167777728Y-80430003D01*
X167785229Y-80407537D01*
X167787856Y-80400394D01*
X167791412Y-80391559D01*
X167814882Y-80333244D01*
X167823549Y-80294759D01*
X167826940Y-80282594D01*
X167839431Y-80245182D01*
X167851046Y-80173700D01*
X167852483Y-80166284D01*
X167868395Y-80095638D01*
X167870775Y-80056281D01*
X167872173Y-80043703D01*
X167878500Y-80004779D01*
X167878500Y-79932391D01*
X167878730Y-79924783D01*
X167883101Y-79852525D01*
X167879138Y-79813298D01*
X167878500Y-79800634D01*
X167878500Y-79754676D01*
X167898502Y-79686555D01*
X167952158Y-79640062D01*
X168022432Y-79629958D01*
X168041076Y-79634102D01*
X168172298Y-79673908D01*
X168370000Y-79693380D01*
X168567701Y-79673908D01*
X168757804Y-79616241D01*
X168933004Y-79522595D01*
X168933005Y-79522593D01*
X168933007Y-79522593D01*
X169086568Y-79396568D01*
X169212593Y-79243007D01*
X169212595Y-79243004D01*
X169306241Y-79067804D01*
X169363908Y-78877701D01*
X169383380Y-78680000D01*
X169363908Y-78482299D01*
X169306241Y-78292196D01*
X169212595Y-78116996D01*
X169212593Y-78116992D01*
X169086568Y-77963431D01*
X168933007Y-77837406D01*
X168757802Y-77743758D01*
X168567701Y-77686091D01*
X168369999Y-77666619D01*
X168172298Y-77686091D01*
X167982197Y-77743758D01*
X167806997Y-77837404D01*
X167795412Y-77846912D01*
X167730064Y-77874664D01*
X167660086Y-77862681D01*
X167608986Y-77816854D01*
X167579880Y-77770827D01*
X167418376Y-77588527D01*
X167346291Y-77529671D01*
X167306174Y-77471095D01*
X167304095Y-77400129D01*
X167338693Y-77341203D01*
X167502802Y-77183575D01*
X167649117Y-76988865D01*
X167762304Y-76773205D01*
X167839431Y-76542182D01*
X167843734Y-76515709D01*
X167878500Y-76301781D01*
X167878500Y-75792293D01*
X167878526Y-75789755D01*
X167880647Y-75684461D01*
X167870477Y-75612800D01*
X167869636Y-75605234D01*
X167863810Y-75533069D01*
X167854375Y-75494790D01*
X167851963Y-75482337D01*
X167846426Y-75443318D01*
X167824893Y-75374218D01*
X167822855Y-75366909D01*
X167805523Y-75296588D01*
X167790066Y-75260310D01*
X167785692Y-75248416D01*
X167773967Y-75210788D01*
X167741615Y-75146009D01*
X167738442Y-75139144D01*
X167710056Y-75072520D01*
X167688989Y-75039206D01*
X167682757Y-75028157D01*
X167665146Y-74992894D01*
X167665146Y-74992893D01*
X167622829Y-74934153D01*
X167618569Y-74927845D01*
X167579885Y-74866670D01*
X167553736Y-74837154D01*
X167545820Y-74827256D01*
X167522781Y-74795276D01*
X167471596Y-74744091D01*
X167466396Y-74738566D01*
X167418376Y-74684363D01*
X167387829Y-74659422D01*
X167378422Y-74650917D01*
X166152466Y-73424960D01*
X166150738Y-73423198D01*
X166077739Y-73347198D01*
X166019861Y-73303706D01*
X166013931Y-73298962D01*
X165958785Y-73252055D01*
X165958784Y-73252054D01*
X165925037Y-73231653D01*
X165914550Y-73224569D01*
X165883029Y-73200883D01*
X165883027Y-73200882D01*
X165883026Y-73200881D01*
X165818936Y-73167244D01*
X165812321Y-73163512D01*
X165773333Y-73139944D01*
X165750352Y-73126051D01*
X165713765Y-73111326D01*
X165702260Y-73106008D01*
X165667369Y-73087696D01*
X165667368Y-73087695D01*
X165667365Y-73087694D01*
X165598712Y-73064774D01*
X165591571Y-73062148D01*
X165524403Y-73035116D01*
X165485949Y-73026455D01*
X165473738Y-73023051D01*
X165436345Y-73010568D01*
X165364895Y-72998957D01*
X165357428Y-72997511D01*
X165336003Y-72992686D01*
X165286800Y-72981604D01*
X165247448Y-72979224D01*
X165234848Y-72977822D01*
X165210347Y-72973840D01*
X165195944Y-72971500D01*
X165195943Y-72971500D01*
X165123567Y-72971500D01*
X165115959Y-72971270D01*
X165043689Y-72966898D01*
X165043688Y-72966898D01*
X165016807Y-72969614D01*
X165004455Y-72970862D01*
X164991790Y-72971500D01*
X158920346Y-72971500D01*
X158917809Y-72971474D01*
X158812540Y-72969353D01*
X158740881Y-72979522D01*
X158733319Y-72980363D01*
X158661147Y-72986189D01*
X158622867Y-72995624D01*
X158610424Y-72998035D01*
X158571396Y-73003574D01*
X158502293Y-73025107D01*
X158494964Y-73027150D01*
X158424673Y-73044476D01*
X158424671Y-73044476D01*
X158424670Y-73044477D01*
X158406891Y-73052051D01*
X158388399Y-73059930D01*
X158376502Y-73064305D01*
X158338870Y-73076032D01*
X158274103Y-73108377D01*
X158267197Y-73111569D01*
X158200599Y-73139944D01*
X158167282Y-73161012D01*
X158156243Y-73167238D01*
X158120975Y-73184852D01*
X158062236Y-73227168D01*
X158055938Y-73231422D01*
X157994750Y-73270117D01*
X157975857Y-73286853D01*
X157965240Y-73296260D01*
X157955339Y-73304179D01*
X157923357Y-73327219D01*
X157872182Y-73378394D01*
X157866641Y-73383610D01*
X157812444Y-73431624D01*
X157787505Y-73462169D01*
X157779001Y-73471574D01*
X155219983Y-76030591D01*
X155218173Y-76032366D01*
X155142198Y-76105342D01*
X155098718Y-76163203D01*
X155093966Y-76169144D01*
X155047055Y-76224295D01*
X155026660Y-76258033D01*
X155019564Y-76268537D01*
X154995883Y-76300053D01*
X154995881Y-76300055D01*
X154995882Y-76300055D01*
X154962249Y-76364134D01*
X154958513Y-76370758D01*
X154921052Y-76432728D01*
X154906330Y-76469307D01*
X154901011Y-76480814D01*
X154882697Y-76515709D01*
X154859770Y-76584380D01*
X154857145Y-76591518D01*
X154830116Y-76658679D01*
X154821454Y-76697137D01*
X154818050Y-76709347D01*
X154805568Y-76746736D01*
X154793957Y-76818185D01*
X154792510Y-76825658D01*
X154776604Y-76896280D01*
X154774224Y-76935633D01*
X154772822Y-76948235D01*
X154766500Y-76987136D01*
X154766500Y-77059514D01*
X154766270Y-77067122D01*
X154761898Y-77139393D01*
X154765862Y-77178627D01*
X154766500Y-77191292D01*
X154766500Y-78910797D01*
X154766704Y-78913326D01*
X154766705Y-78913346D01*
X154781189Y-79092762D01*
X154781189Y-79092765D01*
X154781190Y-79092768D01*
X154810622Y-79212178D01*
X154839478Y-79329251D01*
X154934944Y-79553316D01*
X155065117Y-79759169D01*
X155223479Y-79937924D01*
X155241160Y-79963740D01*
X155338230Y-80152028D01*
X155352341Y-80169971D01*
X155469092Y-80318432D01*
X155528923Y-80370276D01*
X155567306Y-80430003D01*
X155567306Y-80500999D01*
X155528922Y-80560725D01*
X155464341Y-80590218D01*
X155446410Y-80591500D01*
X151907810Y-80591500D01*
X151839689Y-80571498D01*
X151793196Y-80517842D01*
X151783092Y-80447568D01*
X151812586Y-80382988D01*
X151816619Y-80378550D01*
X151859814Y-80333248D01*
X151950303Y-80238346D01*
X152064756Y-80060254D01*
X152103395Y-79963740D01*
X152143435Y-79863724D01*
X152145392Y-79853573D01*
X152183500Y-79655849D01*
X152183500Y-78097197D01*
X152168419Y-77939261D01*
X152123402Y-77785948D01*
X152108777Y-77736138D01*
X152082976Y-77686091D01*
X152011771Y-77547974D01*
X151997377Y-77529671D01*
X151943888Y-77461654D01*
X151880908Y-77381568D01*
X151720918Y-77242935D01*
X151720917Y-77242934D01*
X151537581Y-77137086D01*
X151337524Y-77067846D01*
X151127985Y-77037718D01*
X150916527Y-77047791D01*
X150710797Y-77097701D01*
X150518224Y-77185645D01*
X150345788Y-77308436D01*
X150199696Y-77461655D01*
X150085241Y-77639749D01*
X150006564Y-77836275D01*
X149982057Y-77963431D01*
X149966500Y-78044151D01*
X149966500Y-79602803D01*
X149966784Y-79605774D01*
X149981581Y-79760742D01*
X150041222Y-79963861D01*
X150138230Y-80152028D01*
X150152341Y-80169971D01*
X150269092Y-80318432D01*
X150328923Y-80370276D01*
X150367306Y-80430003D01*
X150367306Y-80500999D01*
X150328922Y-80560725D01*
X150264341Y-80590218D01*
X150246410Y-80591500D01*
X140166457Y-80591500D01*
X140163919Y-80591474D01*
X140058623Y-80589352D01*
X139986950Y-80599523D01*
X139979388Y-80600364D01*
X139907229Y-80606189D01*
X139868949Y-80615624D01*
X139856506Y-80618035D01*
X139817480Y-80623574D01*
X139748388Y-80645104D01*
X139741058Y-80647147D01*
X139670755Y-80664476D01*
X139670753Y-80664476D01*
X139670752Y-80664477D01*
X139652305Y-80672336D01*
X139634479Y-80679931D01*
X139622581Y-80684306D01*
X139584952Y-80696032D01*
X139520190Y-80728374D01*
X139513287Y-80731565D01*
X139446684Y-80759943D01*
X139413368Y-80781011D01*
X139402326Y-80787239D01*
X139367056Y-80804854D01*
X139308327Y-80847162D01*
X139302024Y-80851420D01*
X139246433Y-80886575D01*
X139240832Y-80890117D01*
X139211316Y-80916264D01*
X139201424Y-80924176D01*
X139169441Y-80947218D01*
X139118262Y-80998395D01*
X139112724Y-81003608D01*
X139058527Y-81051624D01*
X139033587Y-81082169D01*
X139025083Y-81091574D01*
X133564983Y-86551673D01*
X133563173Y-86553448D01*
X133487198Y-86626424D01*
X133443718Y-86684285D01*
X133438966Y-86690226D01*
X133392055Y-86745377D01*
X133371660Y-86779115D01*
X133364564Y-86789619D01*
X133340883Y-86821135D01*
X133340881Y-86821137D01*
X133340882Y-86821137D01*
X133307249Y-86885216D01*
X133303513Y-86891840D01*
X133266052Y-86953810D01*
X133251330Y-86990389D01*
X133246011Y-87001896D01*
X133227697Y-87036791D01*
X133204770Y-87105462D01*
X133202145Y-87112600D01*
X133175116Y-87179761D01*
X133166454Y-87218219D01*
X133163050Y-87230429D01*
X133150568Y-87267818D01*
X133138957Y-87339267D01*
X133137510Y-87346740D01*
X133121604Y-87417362D01*
X133119224Y-87456715D01*
X133117822Y-87469317D01*
X133111500Y-87508218D01*
X133111500Y-87580596D01*
X133111270Y-87588204D01*
X133106898Y-87660475D01*
X133110862Y-87699709D01*
X133111500Y-87712374D01*
X133111500Y-95080967D01*
X133091498Y-95149088D01*
X133074595Y-95170062D01*
X126592215Y-101652441D01*
X126586669Y-101657662D01*
X126583673Y-101660316D01*
X126571704Y-101669693D01*
X126552854Y-101682704D01*
X126488773Y-101744254D01*
X126485046Y-101747692D01*
X126418525Y-101806625D01*
X126404029Y-101824379D01*
X126393719Y-101835555D01*
X126377196Y-101851426D01*
X126323825Y-101922450D01*
X126320697Y-101926443D01*
X126264490Y-101995285D01*
X126253032Y-102015130D01*
X126244651Y-102027811D01*
X126230884Y-102046132D01*
X126189593Y-102124805D01*
X126187146Y-102129246D01*
X126142710Y-102206213D01*
X126134585Y-102227637D01*
X126128344Y-102241505D01*
X126117697Y-102261791D01*
X126089563Y-102346059D01*
X126087861Y-102350834D01*
X126056344Y-102433940D01*
X126055228Y-102439407D01*
X126051759Y-102456397D01*
X126047824Y-102471086D01*
X126040567Y-102492821D01*
X126026317Y-102580504D01*
X126025403Y-102585492D01*
X126007626Y-102672576D01*
X126006703Y-102695478D01*
X126005174Y-102710611D01*
X126001499Y-102733221D01*
X126001500Y-102822053D01*
X126001398Y-102827126D01*
X125997819Y-102915941D01*
X119900500Y-102915941D01*
X119900500Y-77602076D01*
X119900567Y-77597954D01*
X119907043Y-77400129D01*
X119918563Y-77048204D01*
X119919103Y-77039989D01*
X119920817Y-77022596D01*
X119972810Y-76494692D01*
X119973885Y-76486527D01*
X119974829Y-76480814D01*
X120063144Y-75945898D01*
X120064751Y-75937819D01*
X120189185Y-75404147D01*
X120191305Y-75396235D01*
X120350375Y-74871853D01*
X120353008Y-74864094D01*
X120546040Y-74351221D01*
X120549178Y-74343647D01*
X120775341Y-73844493D01*
X120778961Y-73837153D01*
X121037279Y-73353873D01*
X121041388Y-73346757D01*
X121330754Y-72881419D01*
X121335311Y-72874599D01*
X121442988Y-72724335D01*
X149574500Y-72724335D01*
X149615429Y-72969614D01*
X149634943Y-73026455D01*
X149696170Y-73204806D01*
X149696171Y-73204809D01*
X149696172Y-73204810D01*
X149814526Y-73423509D01*
X149820842Y-73431624D01*
X149967262Y-73619744D01*
X150150217Y-73788166D01*
X150358389Y-73924171D01*
X150358391Y-73924172D01*
X150358393Y-73924173D01*
X150586119Y-74024063D01*
X150827179Y-74085108D01*
X151012933Y-74100500D01*
X151015547Y-74100500D01*
X151134453Y-74100500D01*
X151137067Y-74100500D01*
X151322821Y-74085108D01*
X151563881Y-74024063D01*
X151791607Y-73924173D01*
X151999785Y-73788164D01*
X152182738Y-73619744D01*
X152335474Y-73423509D01*
X152453828Y-73204810D01*
X152534571Y-72969614D01*
X152575500Y-72724335D01*
X152575500Y-72475665D01*
X152534571Y-72230386D01*
X152453828Y-71995190D01*
X152335474Y-71776491D01*
X152182738Y-71580256D01*
X151999785Y-71411836D01*
X151999782Y-71411833D01*
X151791610Y-71275828D01*
X151563876Y-71175935D01*
X151322826Y-71114893D01*
X151322824Y-71114892D01*
X151322821Y-71114892D01*
X151198361Y-71104578D01*
X151139665Y-71099715D01*
X151139658Y-71099714D01*
X151137067Y-71099500D01*
X151012933Y-71099500D01*
X151010342Y-71099714D01*
X151010334Y-71099715D01*
X150934028Y-71106038D01*
X150827179Y-71114892D01*
X150827176Y-71114892D01*
X150827173Y-71114893D01*
X150586123Y-71175935D01*
X150358389Y-71275828D01*
X150150217Y-71411833D01*
X149967262Y-71580255D01*
X149814527Y-71776489D01*
X149696170Y-71995193D01*
X149615430Y-72230383D01*
X149615429Y-72230386D01*
X149574500Y-72475665D01*
X149574500Y-72724335D01*
X121442988Y-72724335D01*
X121654501Y-72429168D01*
X121659499Y-72422655D01*
X122007136Y-71999059D01*
X122012534Y-71992903D01*
X122387139Y-71592942D01*
X122392942Y-71587139D01*
X122792903Y-71212534D01*
X122799059Y-71207136D01*
X123222655Y-70859499D01*
X123229168Y-70854501D01*
X123674599Y-70535311D01*
X123681419Y-70530754D01*
X124146757Y-70241388D01*
X124153873Y-70237279D01*
X124637153Y-69978961D01*
X124644493Y-69975341D01*
X125143647Y-69749178D01*
X125151221Y-69746040D01*
X125664094Y-69553008D01*
X125671853Y-69550375D01*
X126196235Y-69391305D01*
X126204147Y-69389185D01*
X126737825Y-69264749D01*
X126745898Y-69263144D01*
X127286536Y-69173883D01*
X127294692Y-69172810D01*
X127840003Y-69119102D01*
X127848204Y-69118563D01*
X128371553Y-69101431D01*
X128397954Y-69100567D01*
X128402076Y-69100500D01*
X128465892Y-69100500D01*
X176334108Y-69100500D01*
X176397924Y-69100500D01*
X176402046Y-69100567D01*
G37*
%TD.AperFunction*%
%TD*%
M02*
