%TF.GenerationSoftware,KiCad,Pcbnew,7.0.2*%
%TF.CreationDate,2023-05-27T17:02:01+02:00*%
%TF.ProjectId,benchpsu_barreljack_adapter,62656e63-6870-4737-955f-62617272656c,rev?*%
%TF.SameCoordinates,Original*%
%TF.FileFunction,Soldermask,Bot*%
%TF.FilePolarity,Negative*%
%FSLAX46Y46*%
G04 Gerber Fmt 4.6, Leading zero omitted, Abs format (unit mm)*
G04 Created by KiCad (PCBNEW 7.0.2) date 2023-05-27 17:02:01*
%MOMM*%
%LPD*%
G01*
G04 APERTURE LIST*
G04 Aperture macros list*
%AMRoundRect*
0 Rectangle with rounded corners*
0 $1 Rounding radius*
0 $2 $3 $4 $5 $6 $7 $8 $9 X,Y pos of 4 corners*
0 Add a 4 corners polygon primitive as box body*
4,1,4,$2,$3,$4,$5,$6,$7,$8,$9,$2,$3,0*
0 Add four circle primitives for the rounded corners*
1,1,$1+$1,$2,$3*
1,1,$1+$1,$4,$5*
1,1,$1+$1,$6,$7*
1,1,$1+$1,$8,$9*
0 Add four rect primitives between the rounded corners*
20,1,$1+$1,$2,$3,$4,$5,0*
20,1,$1+$1,$4,$5,$6,$7,0*
20,1,$1+$1,$6,$7,$8,$9,0*
20,1,$1+$1,$8,$9,$2,$3,0*%
G04 Aperture macros list end*
%ADD10C,1.524000*%
%ADD11C,3.600000*%
%ADD12C,5.600000*%
%ADD13R,1.050000X1.500000*%
%ADD14O,1.050000X1.500000*%
%ADD15R,1.200000X1.200000*%
%ADD16C,1.200000*%
%ADD17C,1.000000*%
%ADD18O,1.000000X2.500000*%
%ADD19C,2.500000*%
%ADD20O,1.200000X2.600000*%
%ADD21C,1.900000*%
%ADD22O,1.300000X3.600000*%
%ADD23RoundRect,0.250001X-1.074999X0.462499X-1.074999X-0.462499X1.074999X-0.462499X1.074999X0.462499X0*%
G04 APERTURE END LIST*
D10*
%TO.C,J1*%
X145415000Y-131846000D03*
X145415000Y-129306000D03*
X145415000Y-126766000D03*
X145415000Y-124226000D03*
X142875000Y-131846000D03*
X142875000Y-129306000D03*
X142875000Y-126766000D03*
X142875000Y-124226000D03*
X140335000Y-131846000D03*
X140335000Y-129306000D03*
X140335000Y-126766000D03*
X140335000Y-124226000D03*
%TD*%
%TO.C,J2*%
X164465000Y-131846000D03*
X164465000Y-129306000D03*
X164465000Y-126766000D03*
X164465000Y-124226000D03*
X161925000Y-131846000D03*
X161925000Y-129306000D03*
X161925000Y-126766000D03*
X161925000Y-124226000D03*
X159385000Y-131846000D03*
X159385000Y-129306000D03*
X159385000Y-126766000D03*
X159385000Y-124226000D03*
%TD*%
D11*
%TO.C,H1*%
X179400000Y-128600000D03*
D12*
X179400000Y-128600000D03*
%TD*%
D13*
%TO.C,U2*%
X170180000Y-101960000D03*
D14*
X171450000Y-101960000D03*
X172720000Y-101960000D03*
%TD*%
D15*
%TO.C,C2*%
X168910000Y-106680000D03*
D16*
X167410000Y-106680000D03*
%TD*%
D11*
%TO.C,H2*%
X179400000Y-74600000D03*
D12*
X179400000Y-74600000D03*
%TD*%
D13*
%TO.C,U1*%
X132080000Y-101960000D03*
D14*
X133350000Y-101960000D03*
X134620000Y-101960000D03*
%TD*%
D17*
%TO.C,SW1*%
X168370000Y-78680000D03*
X166370000Y-78680000D03*
X164370000Y-78680000D03*
X168370000Y-76180000D03*
X166370000Y-76180000D03*
X164370000Y-76180000D03*
D18*
X173420000Y-77430000D03*
X159320000Y-77430000D03*
%TD*%
D11*
%TO.C,H3*%
X125400000Y-74600000D03*
D12*
X125400000Y-74600000D03*
%TD*%
D15*
%TO.C,C1*%
X130810000Y-106680000D03*
D16*
X129310000Y-106680000D03*
%TD*%
D15*
%TO.C,C3*%
X137160000Y-106680000D03*
D16*
X135660000Y-106680000D03*
%TD*%
D11*
%TO.C,H4*%
X125400000Y-128600000D03*
D12*
X125400000Y-128600000D03*
%TD*%
D19*
%TO.C,J3*%
X151075000Y-72600000D03*
D20*
X156275000Y-78850000D03*
X151075000Y-78850000D03*
D21*
X151075000Y-82100000D03*
D22*
X147455000Y-72100000D03*
X157305000Y-72100000D03*
%TD*%
D15*
%TO.C,C4*%
X175260000Y-106680000D03*
D16*
X173760000Y-106680000D03*
%TD*%
D23*
%TO.C,D2*%
X138430000Y-90587500D03*
X138430000Y-93562500D03*
%TD*%
%TO.C,D4*%
X166370000Y-90587500D03*
X166370000Y-93562500D03*
%TD*%
M02*
